<svg width="470" height="49" viewBox="0 0 470 49" fill="none" xmlns="http://www.w3.org/2000/svg">
<path d="M152 10C152 4.47715 156.477 0 162 0C167.523 0 172 4.47715 172 10C172 15.5228 167.523 20 162 20C156.477 20 152 15.5228 152 10Z" fill="#76BBB1"/>
<mask id="mask0_70_7106" style="mask-type:alpha" maskUnits="userSpaceOnUse" x="157" y="5" width="10" height="10">
<path fill-rule="evenodd" clip-rule="evenodd" d="M165.658 7.27903C165.781 7.40107 165.781 7.59893 165.658 7.72097L161.283 12.096C161.225 12.1546 161.145 12.1875 161.062 12.1875C160.98 12.1875 160.9 12.1546 160.842 12.096L158.654 9.90847C158.532 9.78643 158.532 9.58857 158.654 9.46653C158.776 9.34449 158.974 9.34449 159.096 9.46653L161.062 11.4331L165.217 7.27903C165.339 7.15699 165.536 7.15699 165.658 7.27903Z" fill="black"/>
</mask>
<g mask="url(#mask0_70_7106)">
<rect x="157" y="5" width="10" height="10" fill="white"/>
</g>
<path d="M124.207 36.1108H122.878C122.827 35.8267 122.732 35.5767 122.592 35.3608C122.453 35.1449 122.283 34.9616 122.081 34.8111C121.879 34.6605 121.653 34.5469 121.403 34.4702C121.156 34.3935 120.893 34.3551 120.615 34.3551C120.112 34.3551 119.662 34.4815 119.264 34.7344C118.869 34.9872 118.557 35.358 118.327 35.8466C118.099 36.3352 117.986 36.9318 117.986 37.6364C117.986 38.3466 118.099 38.946 118.327 39.4347C118.557 39.9233 118.871 40.2926 119.268 40.5426C119.666 40.7926 120.114 40.9176 120.611 40.9176C120.886 40.9176 121.148 40.8807 121.395 40.8068C121.645 40.7301 121.871 40.6179 122.072 40.4702C122.274 40.3224 122.445 40.142 122.584 39.929C122.726 39.7131 122.824 39.4659 122.878 39.1875L124.207 39.1918C124.136 39.6207 123.999 40.0156 123.794 40.3764C123.592 40.7344 123.332 41.044 123.014 41.3054C122.699 41.5639 122.338 41.7642 121.932 41.9062C121.526 42.0483 121.082 42.1193 120.602 42.1193C119.847 42.1193 119.173 41.9403 118.582 41.5824C117.991 41.2216 117.526 40.706 117.185 40.0355C116.847 39.3651 116.678 38.5653 116.678 37.6364C116.678 36.7045 116.848 35.9048 117.189 35.2372C117.53 34.5668 117.996 34.0526 118.587 33.6946C119.178 33.3338 119.849 33.1534 120.602 33.1534C121.065 33.1534 121.497 33.2202 121.898 33.3537C122.301 33.4844 122.663 33.6776 122.984 33.9332C123.305 34.1861 123.571 34.4957 123.781 34.8622C123.991 35.2259 124.134 35.642 124.207 36.1108ZM128.438 42.1321C127.824 42.1321 127.289 41.9915 126.831 41.7102C126.374 41.429 126.019 41.0355 125.766 40.5298C125.513 40.0241 125.387 39.4332 125.387 38.7571C125.387 38.0781 125.513 37.4844 125.766 36.9759C126.019 36.4673 126.374 36.0724 126.831 35.7912C127.289 35.5099 127.824 35.3693 128.438 35.3693C129.051 35.3693 129.587 35.5099 130.044 35.7912C130.502 36.0724 130.857 36.4673 131.11 36.9759C131.363 37.4844 131.489 38.0781 131.489 38.7571C131.489 39.4332 131.363 40.0241 131.11 40.5298C130.857 41.0355 130.502 41.429 130.044 41.7102C129.587 41.9915 129.051 42.1321 128.438 42.1321ZM128.442 41.0625C128.84 41.0625 129.169 40.9574 129.431 40.7472C129.692 40.5369 129.885 40.2571 130.01 39.9077C130.138 39.5582 130.202 39.1733 130.202 38.7528C130.202 38.3352 130.138 37.9517 130.01 37.6023C129.885 37.25 129.692 36.9673 129.431 36.7543C129.169 36.5412 128.84 36.4347 128.442 36.4347C128.042 36.4347 127.709 36.5412 127.445 36.7543C127.184 36.9673 126.989 37.25 126.861 37.6023C126.736 37.9517 126.674 38.3352 126.674 38.7528C126.674 39.1733 126.736 39.5582 126.861 39.9077C126.989 40.2571 127.184 40.5369 127.445 40.7472C127.709 40.9574 128.042 41.0625 128.442 41.0625ZM132.911 42V35.4545H134.134V36.5199H134.215C134.352 36.1591 134.575 35.8778 134.884 35.6761C135.194 35.4716 135.565 35.3693 135.996 35.3693C136.434 35.3693 136.8 35.4716 137.096 35.6761C137.394 35.8807 137.614 36.1619 137.756 36.5199H137.825C137.981 36.1705 138.229 35.892 138.57 35.6847C138.911 35.4744 139.317 35.3693 139.789 35.3693C140.383 35.3693 140.867 35.5554 141.242 35.9276C141.62 36.2997 141.809 36.8608 141.809 37.6108V42H140.535V37.7301C140.535 37.2869 140.414 36.9659 140.173 36.767C139.931 36.5682 139.643 36.4688 139.308 36.4688C138.893 36.4688 138.57 36.5966 138.34 36.8523C138.11 37.1051 137.995 37.4304 137.995 37.8281V42H136.725V37.6491C136.725 37.294 136.614 37.0085 136.393 36.7926C136.171 36.5767 135.883 36.4688 135.528 36.4688C135.286 36.4688 135.063 36.5327 134.859 36.6605C134.657 36.7855 134.494 36.9602 134.369 37.1847C134.246 37.4091 134.185 37.669 134.185 37.9645V42H132.911ZM143.517 44.4545V35.4545H144.761V36.5156H144.868C144.941 36.3793 145.048 36.2216 145.187 36.0426C145.326 35.8636 145.52 35.7074 145.767 35.5739C146.014 35.4375 146.341 35.3693 146.747 35.3693C147.275 35.3693 147.747 35.5028 148.162 35.7699C148.576 36.0369 148.902 36.4219 149.137 36.9247C149.376 37.4276 149.495 38.0327 149.495 38.7401C149.495 39.4474 149.377 40.054 149.142 40.5597C148.906 41.0625 148.582 41.4503 148.17 41.723C147.758 41.9929 147.288 42.1278 146.76 42.1278C146.362 42.1278 146.037 42.0611 145.784 41.9276C145.534 41.794 145.338 41.6378 145.196 41.4588C145.054 41.2798 144.944 41.1207 144.868 40.9815H144.791V44.4545H143.517ZM144.765 38.7273C144.765 39.1875 144.832 39.5909 144.966 39.9375C145.099 40.2841 145.292 40.5554 145.545 40.7514C145.798 40.9446 146.108 41.0412 146.474 41.0412C146.855 41.0412 147.173 40.9403 147.429 40.7386C147.684 40.5341 147.877 40.2571 148.008 39.9077C148.142 39.5582 148.208 39.1648 148.208 38.7273C148.208 38.2955 148.143 37.9077 148.012 37.5639C147.885 37.2202 147.691 36.9489 147.433 36.75C147.177 36.5511 146.858 36.4517 146.474 36.4517C146.105 36.4517 145.792 36.5469 145.537 36.7372C145.284 36.9276 145.092 37.1932 144.961 37.5341C144.831 37.875 144.765 38.2727 144.765 38.7273ZM153.373 42.1278C152.845 42.1278 152.373 41.9929 151.958 41.723C151.547 41.4503 151.223 41.0625 150.987 40.5597C150.754 40.054 150.637 39.4474 150.637 38.7401C150.637 38.0327 150.755 37.4276 150.991 36.9247C151.23 36.4219 151.556 36.0369 151.971 35.7699C152.386 35.5028 152.856 35.3693 153.382 35.3693C153.788 35.3693 154.115 35.4375 154.362 35.5739C154.612 35.7074 154.805 35.8636 154.941 36.0426C155.081 36.2216 155.189 36.3793 155.265 36.5156H155.342V35.4545H156.616V42H155.372V40.9815H155.265C155.189 41.1207 155.078 41.2798 154.933 41.4588C154.791 41.6378 154.595 41.794 154.345 41.9276C154.095 42.0611 153.771 42.1278 153.373 42.1278ZM153.654 41.0412C154.021 41.0412 154.331 40.9446 154.583 40.7514C154.839 40.5554 155.032 40.2841 155.163 39.9375C155.297 39.5909 155.363 39.1875 155.363 38.7273C155.363 38.2727 155.298 37.875 155.167 37.5341C155.037 37.1932 154.845 36.9276 154.592 36.7372C154.339 36.5469 154.027 36.4517 153.654 36.4517C153.271 36.4517 152.951 36.5511 152.696 36.75C152.44 36.9489 152.247 37.2202 152.116 37.5639C151.988 37.9077 151.924 38.2955 151.924 38.7273C151.924 39.1648 151.99 39.5582 152.12 39.9077C152.251 40.2571 152.444 40.5341 152.7 40.7386C152.958 40.9403 153.277 41.0412 153.654 41.0412ZM159.709 38.1136V42H158.435V35.4545H159.658V36.5199H159.739C159.889 36.1733 160.125 35.8949 160.446 35.6847C160.77 35.4744 161.178 35.3693 161.669 35.3693C162.115 35.3693 162.506 35.4631 162.841 35.6506C163.176 35.8352 163.436 36.1108 163.621 36.4773C163.805 36.8437 163.898 37.2969 163.898 37.8366V42H162.624V37.9901C162.624 37.5156 162.5 37.1449 162.253 36.8778C162.006 36.608 161.666 36.473 161.234 36.473C160.939 36.473 160.676 36.5369 160.446 36.6648C160.219 36.7926 160.038 36.9801 159.905 37.2273C159.774 37.4716 159.709 37.767 159.709 38.1136ZM166.178 44.4545C165.987 44.4545 165.814 44.4389 165.658 44.4077C165.501 44.3793 165.385 44.348 165.308 44.3139L165.615 43.2699C165.848 43.3324 166.055 43.3594 166.237 43.3509C166.419 43.3423 166.58 43.2741 166.719 43.1463C166.861 43.0185 166.986 42.8097 167.094 42.5199L167.251 42.0852L164.857 35.4545H166.22L167.878 40.5341H167.946L169.604 35.4545H170.972L168.274 42.8736C168.149 43.2145 167.99 43.5028 167.797 43.7386C167.604 43.9773 167.374 44.1563 167.107 44.2756C166.839 44.3949 166.53 44.4545 166.178 44.4545ZM177.795 42.1278C177.267 42.1278 176.795 41.9929 176.38 41.723C175.968 41.4503 175.645 41.0625 175.409 40.5597C175.176 40.054 175.059 39.4474 175.059 38.7401C175.059 38.0327 175.177 37.4276 175.413 36.9247C175.652 36.4219 175.978 36.0369 176.393 35.7699C176.808 35.5028 177.278 35.3693 177.804 35.3693C178.21 35.3693 178.537 35.4375 178.784 35.5739C179.034 35.7074 179.227 35.8636 179.363 36.0426C179.502 36.2216 179.61 36.3793 179.687 36.5156H179.764V33.2727H181.038V42H179.794V40.9815H179.687C179.61 41.1207 179.5 41.2798 179.355 41.4588C179.213 41.6378 179.017 41.794 178.767 41.9276C178.517 42.0611 178.193 42.1278 177.795 42.1278ZM178.076 41.0412C178.443 41.0412 178.752 40.9446 179.005 40.7514C179.261 40.5554 179.454 40.2841 179.585 39.9375C179.718 39.5909 179.785 39.1875 179.785 38.7273C179.785 38.2727 179.72 37.875 179.589 37.5341C179.458 37.1932 179.267 36.9276 179.014 36.7372C178.761 36.5469 178.449 36.4517 178.076 36.4517C177.693 36.4517 177.373 36.5511 177.118 36.75C176.862 36.9489 176.669 37.2202 176.538 37.5639C176.41 37.9077 176.346 38.2955 176.346 38.7273C176.346 39.1648 176.412 39.5582 176.542 39.9077C176.673 40.2571 176.866 40.5341 177.122 40.7386C177.38 40.9403 177.699 41.0412 178.076 41.0412ZM185.678 42.1321C185.033 42.1321 184.477 41.9943 184.011 41.7188C183.548 41.4403 183.19 41.0497 182.938 40.5469C182.688 40.0412 182.562 39.4489 182.562 38.7699C182.562 38.0994 182.688 37.5085 182.938 36.9972C183.19 36.4858 183.543 36.0866 183.994 35.7997C184.449 35.5128 184.98 35.3693 185.588 35.3693C185.957 35.3693 186.315 35.4304 186.662 35.5526C187.009 35.6747 187.32 35.8665 187.595 36.1278C187.871 36.3892 188.088 36.7287 188.247 37.1463C188.406 37.5611 188.486 38.0653 188.486 38.6591V39.1108H183.283V38.1562H187.237C187.237 37.821 187.169 37.5241 187.033 37.2656C186.896 37.0043 186.705 36.7983 186.457 36.6477C186.213 36.4972 185.926 36.4219 185.597 36.4219C185.239 36.4219 184.926 36.5099 184.659 36.6861C184.395 36.8594 184.19 37.0866 184.045 37.3679C183.903 37.6463 183.832 37.9489 183.832 38.2756V39.0213C183.832 39.4588 183.909 39.831 184.062 40.1378C184.219 40.4446 184.436 40.679 184.714 40.8409C184.993 41 185.318 41.0795 185.69 41.0795C185.932 41.0795 186.152 41.0455 186.351 40.9773C186.55 40.9062 186.722 40.8011 186.866 40.6619C187.011 40.5227 187.122 40.3509 187.199 40.1463L188.405 40.3636C188.308 40.7187 188.135 41.0298 187.885 41.2969C187.638 41.5611 187.327 41.767 186.952 41.9148C186.58 42.0597 186.155 42.1321 185.678 42.1321ZM192.955 35.4545V36.4773H189.38V35.4545H192.955ZM190.338 33.8864H191.613V40.0781C191.613 40.3253 191.65 40.5114 191.723 40.6364C191.797 40.7585 191.892 40.8423 192.009 40.8878C192.128 40.9304 192.257 40.9517 192.397 40.9517C192.499 40.9517 192.588 40.9446 192.665 40.9304C192.742 40.9162 192.801 40.9048 192.844 40.8963L193.074 41.9489C193 41.9773 192.895 42.0057 192.759 42.0341C192.623 42.0653 192.452 42.0824 192.248 42.0852C191.912 42.0909 191.6 42.0312 191.31 41.9062C191.02 41.7812 190.786 41.5881 190.607 41.3267C190.428 41.0653 190.338 40.7372 190.338 40.3423V33.8864ZM196.744 42.1278C196.216 42.1278 195.744 41.9929 195.33 41.723C194.918 41.4503 194.594 41.0625 194.358 40.5597C194.125 40.054 194.009 39.4474 194.009 38.7401C194.009 38.0327 194.126 37.4276 194.362 36.9247C194.601 36.4219 194.928 36.0369 195.342 35.7699C195.757 35.5028 196.227 35.3693 196.753 35.3693C197.159 35.3693 197.486 35.4375 197.733 35.5739C197.983 35.7074 198.176 35.8636 198.312 36.0426C198.452 36.2216 198.56 36.3793 198.636 36.5156H198.713V35.4545H199.987V42H198.743V40.9815H198.636C198.56 41.1207 198.449 41.2798 198.304 41.4588C198.162 41.6378 197.966 41.794 197.716 41.9276C197.466 42.0611 197.142 42.1278 196.744 42.1278ZM197.026 41.0412C197.392 41.0412 197.702 40.9446 197.955 40.7514C198.21 40.5554 198.403 40.2841 198.534 39.9375C198.668 39.5909 198.734 39.1875 198.734 38.7273C198.734 38.2727 198.669 37.875 198.538 37.5341C198.408 37.1932 198.216 36.9276 197.963 36.7372C197.71 36.5469 197.398 36.4517 197.026 36.4517C196.642 36.4517 196.322 36.5511 196.067 36.75C195.811 36.9489 195.618 37.2202 195.487 37.5639C195.359 37.9077 195.295 38.2955 195.295 38.7273C195.295 39.1648 195.361 39.5582 195.491 39.9077C195.622 40.2571 195.815 40.5341 196.071 40.7386C196.33 40.9403 196.648 41.0412 197.026 41.0412ZM201.806 42V35.4545H203.08V42H201.806ZM202.449 34.4446C202.228 34.4446 202.037 34.3707 201.878 34.223C201.722 34.0724 201.644 33.8935 201.644 33.6861C201.644 33.4759 201.722 33.2969 201.878 33.1491C202.037 32.9986 202.228 32.9233 202.449 32.9233C202.671 32.9233 202.86 32.9986 203.016 33.1491C203.175 33.2969 203.255 33.4759 203.255 33.6861C203.255 33.8935 203.175 34.0724 203.016 34.223C202.86 34.3707 202.671 34.4446 202.449 34.4446ZM204.794 33.2727H206.068V40.2102C206.068 40.4915 206.104 40.6903 206.175 40.8068C206.249 40.9233 206.388 40.9787 206.592 40.973C206.703 40.9702 206.786 40.9631 206.839 40.9517C206.896 40.9403 206.947 40.9276 206.993 40.9134L207.223 41.9318C207.135 41.9574 207.023 41.9815 206.886 42.0043C206.753 42.0298 206.601 42.044 206.43 42.0469C205.879 42.0554 205.469 41.9247 205.199 41.6548C204.929 41.3849 204.794 40.9915 204.794 40.4744V33.2727ZM212.968 37.0526L211.814 37.2571C211.765 37.1094 211.689 36.9687 211.583 36.8352C211.481 36.7017 211.342 36.5923 211.166 36.5071C210.99 36.4219 210.77 36.3793 210.505 36.3793C210.145 36.3793 209.843 36.4602 209.602 36.6222C209.36 36.7812 209.24 36.9872 209.24 37.2401C209.24 37.4588 209.321 37.6349 209.483 37.7685C209.645 37.902 209.906 38.0114 210.267 38.0966L211.306 38.3352C211.909 38.4744 212.358 38.6889 212.653 38.9787C212.949 39.2685 213.096 39.6449 213.096 40.108C213.096 40.5 212.983 40.8494 212.755 41.1562C212.531 41.4602 212.217 41.6989 211.814 41.8722C211.413 42.0455 210.949 42.1321 210.42 42.1321C209.687 42.1321 209.089 41.9759 208.626 41.6634C208.163 41.348 207.879 40.9006 207.774 40.321L209.005 40.1335C209.082 40.4545 209.24 40.6974 209.478 40.8622C209.717 41.0241 210.028 41.1051 210.412 41.1051C210.829 41.1051 211.163 41.0185 211.413 40.8452C211.663 40.669 211.788 40.4545 211.788 40.2017C211.788 39.9972 211.711 39.8253 211.558 39.6861C211.407 39.5469 211.176 39.4418 210.863 39.3707L209.755 39.1278C209.145 38.9886 208.693 38.767 208.4 38.4631C208.11 38.1591 207.966 37.7741 207.966 37.3082C207.966 36.9219 208.074 36.5838 208.289 36.294C208.505 36.0043 208.804 35.7784 209.184 35.6165C209.565 35.4517 210.001 35.3693 210.493 35.3693C211.2 35.3693 211.757 35.5227 212.163 35.8295C212.569 36.1335 212.838 36.5412 212.968 37.0526Z" fill="#00313D"/>
<path d="M25 11C25 5.47715 29.4772 1 35 1C40.5228 1 45 5.47715 45 11C45 16.5228 40.5228 21 35 21C29.4772 21 25 16.5228 25 11Z" fill="#76BBB1"/>
<mask id="mask1_70_7106" style="mask-type:alpha" maskUnits="userSpaceOnUse" x="30" y="6" width="10" height="10">
<path fill-rule="evenodd" clip-rule="evenodd" d="M38.6585 8.27903C38.7805 8.40107 38.7805 8.59893 38.6585 8.72097L34.2835 13.096C34.2249 13.1546 34.1454 13.1875 34.0625 13.1875C33.9796 13.1875 33.9001 13.1546 33.8415 13.096L31.654 10.9085C31.532 10.7864 31.532 10.5886 31.654 10.4665C31.7761 10.3445 31.9739 10.3445 32.096 10.4665L34.0625 12.4331L38.2165 8.27903C38.3386 8.15699 38.5364 8.15699 38.6585 8.27903Z" fill="black"/>
</mask>
<g mask="url(#mask1_70_7106)">
<rect x="30" y="6" width="10" height="10" fill="white"/>
</g>
<path d="M6.57102 33.2727H7.89205V39.0128C7.89205 39.6236 7.74858 40.1648 7.46165 40.6364C7.17472 41.1051 6.77131 41.4744 6.25142 41.7443C5.73153 42.0114 5.12216 42.1449 4.4233 42.1449C3.72727 42.1449 3.11932 42.0114 2.59943 41.7443C2.07955 41.4744 1.67614 41.1051 1.3892 40.6364C1.10227 40.1648 0.958807 39.6236 0.958807 39.0128V33.2727H2.27557V38.9062C2.27557 39.3011 2.36222 39.652 2.53551 39.9588C2.71165 40.2656 2.96023 40.5071 3.28125 40.6832C3.60227 40.8565 3.98295 40.9432 4.4233 40.9432C4.86648 40.9432 5.24858 40.8565 5.5696 40.6832C5.89347 40.5071 6.14063 40.2656 6.31108 39.9588C6.48438 39.652 6.57102 39.3011 6.57102 38.9062V33.2727ZM14.609 37.0526L13.4542 37.2571C13.4059 37.1094 13.3292 36.9687 13.2241 36.8352C13.1218 36.7017 12.9826 36.5923 12.8065 36.5071C12.6303 36.4219 12.4102 36.3793 12.146 36.3793C11.7852 36.3793 11.484 36.4602 11.2425 36.6222C11.0011 36.7812 10.8803 36.9872 10.8803 37.2401C10.8803 37.4588 10.9613 37.6349 11.1232 37.7685C11.2852 37.902 11.5465 38.0114 11.9073 38.0966L12.9471 38.3352C13.5494 38.4744 13.9982 38.6889 14.2937 38.9787C14.5891 39.2685 14.7369 39.6449 14.7369 40.108C14.7369 40.5 14.6232 40.8494 14.396 41.1562C14.1715 41.4602 13.8576 41.6989 13.4542 41.8722C13.0536 42.0455 12.5891 42.1321 12.0607 42.1321C11.3278 42.1321 10.7298 41.9759 10.2667 41.6634C9.80362 41.348 9.51953 40.9006 9.41442 40.321L10.646 40.1335C10.7227 40.4545 10.8803 40.6974 11.119 40.8622C11.3576 41.0241 11.6687 41.1051 12.0522 41.1051C12.4698 41.1051 12.8036 41.0185 13.0536 40.8452C13.3036 40.669 13.4286 40.4545 13.4286 40.2017C13.4286 39.9972 13.3519 39.8253 13.1985 39.6861C13.0479 39.5469 12.8164 39.4418 12.5039 39.3707L11.396 39.1278C10.7852 38.9886 10.3335 38.767 10.0408 38.4631C9.75107 38.1591 9.60618 37.7741 9.60618 37.3082C9.60618 36.9219 9.71413 36.5838 9.93004 36.294C10.146 36.0043 10.4442 35.7784 10.8249 35.6165C11.2056 35.4517 11.6417 35.3693 12.1332 35.3693C12.8406 35.3693 13.3974 35.5227 13.8036 35.8295C14.2099 36.1335 14.4783 36.5412 14.609 37.0526ZM18.9588 42.1321C18.3139 42.1321 17.7585 41.9943 17.2926 41.7188C16.8295 41.4403 16.4716 41.0497 16.2188 40.5469C15.9688 40.0412 15.8438 39.4489 15.8438 38.7699C15.8438 38.0994 15.9688 37.5085 16.2188 36.9972C16.4716 36.4858 16.8239 36.0866 17.2756 35.7997C17.7301 35.5128 18.2614 35.3693 18.8693 35.3693C19.2386 35.3693 19.5966 35.4304 19.9432 35.5526C20.2898 35.6747 20.6009 35.8665 20.8764 36.1278C21.152 36.3892 21.3693 36.7287 21.5284 37.1463C21.6875 37.5611 21.767 38.0653 21.767 38.6591V39.1108H16.5639V38.1562H20.5185C20.5185 37.821 20.4503 37.5241 20.3139 37.2656C20.1776 37.0043 19.9858 36.7983 19.7386 36.6477C19.4943 36.4972 19.2074 36.4219 18.8778 36.4219C18.5199 36.4219 18.2074 36.5099 17.9403 36.6861C17.6761 36.8594 17.4716 37.0866 17.3267 37.3679C17.1847 37.6463 17.1136 37.9489 17.1136 38.2756V39.0213C17.1136 39.4588 17.1903 39.831 17.3438 40.1378C17.5 40.4446 17.7173 40.679 17.9957 40.8409C18.2741 41 18.5994 41.0795 18.9716 41.0795C19.2131 41.0795 19.4332 41.0455 19.6321 40.9773C19.831 40.9062 20.0028 40.8011 20.1477 40.6619C20.2926 40.5227 20.4034 40.3509 20.4801 40.1463L21.6861 40.3636C21.5895 40.7187 21.4162 41.0298 21.1662 41.2969C20.919 41.5611 20.608 41.767 20.233 41.9148C19.8608 42.0597 19.4361 42.1321 18.9588 42.1321ZM23.1808 42V35.4545H24.4123V36.4943H24.4805C24.5998 36.142 24.81 35.8651 25.1112 35.6634C25.4123 35.4588 25.756 35.3565 26.1424 35.3565C26.3214 35.3565 26.4819 35.3778 26.6239 35.4205C26.766 35.4631 26.891 35.5213 26.9989 35.5952L26.5898 36.6605C26.5131 36.6236 26.4265 36.5937 26.3299 36.571C26.2333 36.5455 26.1225 36.5327 25.9975 36.5327C25.7021 36.5327 25.4379 36.5966 25.2049 36.7244C24.9748 36.8494 24.7915 37.0227 24.6552 37.2443C24.5217 37.4659 24.4549 37.7187 24.4549 38.0028V42H23.1808ZM33.5646 42.1278C33.0362 42.1278 32.5646 41.9929 32.1499 41.723C31.7379 41.4503 31.4141 41.0625 31.1783 40.5597C30.9453 40.054 30.8288 39.4474 30.8288 38.7401C30.8288 38.0327 30.9467 37.4276 31.1825 36.9247C31.4212 36.4219 31.7479 36.0369 32.1626 35.7699C32.5774 35.5028 33.0476 35.3693 33.5732 35.3693C33.9794 35.3693 34.3061 35.4375 34.5533 35.5739C34.8033 35.7074 34.9964 35.8636 35.1328 36.0426C35.272 36.2216 35.38 36.3793 35.4567 36.5156H35.5334V33.2727H36.8075V42H35.5632V40.9815H35.4567C35.38 41.1207 35.2692 41.2798 35.1243 41.4588C34.9822 41.6378 34.7862 41.794 34.5362 41.9276C34.2862 42.0611 33.9624 42.1278 33.5646 42.1278ZM33.8459 41.0412C34.2124 41.0412 34.522 40.9446 34.7749 40.7514C35.0305 40.5554 35.2237 40.2841 35.3544 39.9375C35.4879 39.5909 35.5547 39.1875 35.5547 38.7273C35.5547 38.2727 35.4893 37.875 35.3587 37.5341C35.228 37.1932 35.0362 36.9276 34.7834 36.7372C34.5305 36.5469 34.218 36.4517 33.8459 36.4517C33.4624 36.4517 33.1428 36.5511 32.8871 36.75C32.6314 36.9489 32.4382 37.2202 32.3075 37.5639C32.1797 37.9077 32.1158 38.2955 32.1158 38.7273C32.1158 39.1648 32.1811 39.5582 32.3118 39.9077C32.4425 40.2571 32.6357 40.5341 32.8913 40.7386C33.1499 40.9403 33.468 41.0412 33.8459 41.0412ZM41.4471 42.1321C40.8022 42.1321 40.2468 41.9943 39.7809 41.7188C39.3178 41.4403 38.9599 41.0497 38.707 40.5469C38.457 40.0412 38.332 39.4489 38.332 38.7699C38.332 38.0994 38.457 37.5085 38.707 36.9972C38.9599 36.4858 39.3121 36.0866 39.7638 35.7997C40.2184 35.5128 40.7496 35.3693 41.3576 35.3693C41.7269 35.3693 42.0849 35.4304 42.4315 35.5526C42.7781 35.6747 43.0891 35.8665 43.3647 36.1278C43.6403 36.3892 43.8576 36.7287 44.0167 37.1463C44.1758 37.5611 44.2553 38.0653 44.2553 38.6591V39.1108H39.0522V38.1562H43.0067C43.0067 37.821 42.9386 37.5241 42.8022 37.2656C42.6658 37.0043 42.4741 36.7983 42.2269 36.6477C41.9826 36.4972 41.6957 36.4219 41.3661 36.4219C41.0082 36.4219 40.6957 36.5099 40.4286 36.6861C40.1644 36.8594 39.9599 37.0866 39.815 37.3679C39.6729 37.6463 39.6019 37.9489 39.6019 38.2756V39.0213C39.6019 39.4588 39.6786 39.831 39.832 40.1378C39.9883 40.4446 40.2056 40.679 40.484 40.8409C40.7624 41 41.0877 41.0795 41.4599 41.0795C41.7013 41.0795 41.9215 41.0455 42.1204 40.9773C42.3192 40.9062 42.4911 40.8011 42.636 40.6619C42.7809 40.5227 42.8917 40.3509 42.9684 40.1463L44.1744 40.3636C44.0778 40.7187 43.9045 41.0298 43.6545 41.2969C43.4073 41.5611 43.0962 41.767 42.7212 41.9148C42.3491 42.0597 41.9244 42.1321 41.4471 42.1321ZM48.7244 35.4545V36.4773H45.1491V35.4545H48.7244ZM46.108 33.8864H47.3821V40.0781C47.3821 40.3253 47.419 40.5114 47.4929 40.6364C47.5668 40.7585 47.6619 40.8423 47.7784 40.8878C47.8977 40.9304 48.027 40.9517 48.1662 40.9517C48.2685 40.9517 48.358 40.9446 48.4347 40.9304C48.5114 40.9162 48.571 40.9048 48.6136 40.8963L48.8438 41.9489C48.7699 41.9773 48.6648 42.0057 48.5284 42.0341C48.392 42.0653 48.2216 42.0824 48.017 42.0852C47.6818 42.0909 47.3693 42.0312 47.0795 41.9062C46.7898 41.7812 46.5554 41.5881 46.3764 41.3267C46.1974 41.0653 46.108 40.7372 46.108 40.3423V33.8864ZM52.5138 42.1278C51.9854 42.1278 51.5138 41.9929 51.0991 41.723C50.6871 41.4503 50.3633 41.0625 50.1275 40.5597C49.8945 40.054 49.7781 39.4474 49.7781 38.7401C49.7781 38.0327 49.896 37.4276 50.1317 36.9247C50.3704 36.4219 50.6971 36.0369 51.1119 35.7699C51.5266 35.5028 51.9968 35.3693 52.5224 35.3693C52.9286 35.3693 53.2553 35.4375 53.5025 35.5739C53.7525 35.7074 53.9457 35.8636 54.082 36.0426C54.2212 36.2216 54.3292 36.3793 54.4059 36.5156H54.4826V35.4545H55.7567V42H54.5124V40.9815H54.4059C54.3292 41.1207 54.2184 41.2798 54.0735 41.4588C53.9315 41.6378 53.7354 41.794 53.4854 41.9276C53.2354 42.0611 52.9116 42.1278 52.5138 42.1278ZM52.7951 41.0412C53.1616 41.0412 53.4712 40.9446 53.7241 40.7514C53.9798 40.5554 54.1729 40.2841 54.3036 39.9375C54.4371 39.5909 54.5039 39.1875 54.5039 38.7273C54.5039 38.2727 54.4386 37.875 54.3079 37.5341C54.1772 37.1932 53.9854 36.9276 53.7326 36.7372C53.4798 36.5469 53.1673 36.4517 52.7951 36.4517C52.4116 36.4517 52.092 36.5511 51.8363 36.75C51.5806 36.9489 51.3874 37.2202 51.2567 37.5639C51.1289 37.9077 51.065 38.2955 51.065 38.7273C51.065 39.1648 51.1303 39.5582 51.261 39.9077C51.3917 40.2571 51.5849 40.5341 51.8406 40.7386C52.0991 40.9403 52.4173 41.0412 52.7951 41.0412ZM57.5753 42V35.4545H58.8494V42H57.5753ZM58.2188 34.4446C57.9972 34.4446 57.8068 34.3707 57.6477 34.223C57.4915 34.0724 57.4134 33.8935 57.4134 33.6861C57.4134 33.4759 57.4915 33.2969 57.6477 33.1491C57.8068 32.9986 57.9972 32.9233 58.2188 32.9233C58.4403 32.9233 58.6293 32.9986 58.7855 33.1491C58.9446 33.2969 59.0241 33.4759 59.0241 33.6861C59.0241 33.8935 58.9446 34.0724 58.7855 34.223C58.6293 34.3707 58.4403 34.4446 58.2188 34.4446ZM60.5636 33.2727H61.8377V40.2102C61.8377 40.4915 61.8732 40.6903 61.9442 40.8068C62.0181 40.9233 62.1573 40.9787 62.3619 40.973C62.4727 40.9702 62.555 40.9631 62.609 40.9517C62.6658 40.9403 62.717 40.9276 62.7624 40.9134L62.9925 41.9318C62.9045 41.9574 62.7923 41.9815 62.6559 42.0043C62.5224 42.0298 62.3704 42.044 62.1999 42.0469C61.6488 42.0554 61.2383 41.9247 60.9684 41.6548C60.6985 41.3849 60.5636 40.9915 60.5636 40.4744V33.2727ZM68.7379 37.0526L67.5831 37.2571C67.5348 37.1094 67.4581 36.9687 67.353 36.8352C67.2507 36.7017 67.1115 36.5923 66.9354 36.5071C66.7592 36.4219 66.5391 36.3793 66.2749 36.3793C65.9141 36.3793 65.6129 36.4602 65.3714 36.6222C65.13 36.7812 65.0092 36.9872 65.0092 37.2401C65.0092 37.4588 65.0902 37.6349 65.2521 37.7685C65.4141 37.902 65.6754 38.0114 66.0362 38.0966L67.076 38.3352C67.6783 38.4744 68.1271 38.6889 68.4226 38.9787C68.718 39.2685 68.8658 39.6449 68.8658 40.108C68.8658 40.5 68.7521 40.8494 68.5249 41.1562C68.3004 41.4602 67.9865 41.6989 67.5831 41.8722C67.1825 42.0455 66.718 42.1321 66.1896 42.1321C65.4567 42.1321 64.8587 41.9759 64.3956 41.6634C63.9325 41.348 63.6484 40.9006 63.5433 40.321L64.7749 40.1335C64.8516 40.4545 65.0092 40.6974 65.2479 40.8622C65.4865 41.0241 65.7976 41.1051 66.1811 41.1051C66.5987 41.1051 66.9325 41.0185 67.1825 40.8452C67.4325 40.669 67.5575 40.4545 67.5575 40.2017C67.5575 39.9972 67.4808 39.8253 67.3274 39.6861C67.1768 39.5469 66.9453 39.4418 66.6328 39.3707L65.5249 39.1278C64.9141 38.9886 64.4624 38.767 64.1697 38.4631C63.88 38.1591 63.7351 37.7741 63.7351 37.3082C63.7351 36.9219 63.843 36.5838 64.0589 36.294C64.2749 36.0043 64.5732 35.7784 64.9538 35.6165C65.3345 35.4517 65.7706 35.3693 66.2621 35.3693C66.9695 35.3693 67.5263 35.5227 67.9325 35.8295C68.3388 36.1335 68.6072 36.5412 68.7379 37.0526Z" fill="#00313D"/>
<path d="M270 10C270 4.47715 274.477 0 280 0C285.523 0 290 4.47715 290 10C290 15.5228 285.523 20 280 20C274.477 20 270 15.5228 270 10Z" fill="#76BBB1"/>
<mask id="mask2_70_7106" style="mask-type:alpha" maskUnits="userSpaceOnUse" x="275" y="5" width="10" height="10">
<path fill-rule="evenodd" clip-rule="evenodd" d="M283.658 7.27903C283.781 7.40107 283.781 7.59893 283.658 7.72097L279.283 12.096C279.225 12.1546 279.145 12.1875 279.062 12.1875C278.98 12.1875 278.9 12.1546 278.842 12.096L276.654 9.90847C276.532 9.78643 276.532 9.58857 276.654 9.46653C276.776 9.34449 276.974 9.34449 277.096 9.46653L279.062 11.4331L283.217 7.27903C283.339 7.15699 283.536 7.15699 283.658 7.27903Z" fill="black"/>
</mask>
<g mask="url(#mask2_70_7106)">
<rect x="275" y="5" width="10" height="10" fill="white"/>
</g>
<path d="M235.696 42H234.298L237.439 33.2727H238.96L242.101 42H240.703L238.236 34.858H238.168L235.696 42ZM235.93 38.5824H240.464V39.6903H235.93V38.5824ZM245.911 42.1321C245.277 42.1321 244.732 41.9886 244.274 41.7017C243.82 41.4119 243.47 41.0128 243.226 40.5043C242.982 39.9957 242.859 39.4134 242.859 38.7571C242.859 38.0923 242.984 37.5057 243.234 36.9972C243.484 36.4858 243.837 36.0866 244.291 35.7997C244.746 35.5128 245.281 35.3693 245.898 35.3693C246.395 35.3693 246.838 35.4616 247.227 35.6463C247.616 35.8281 247.93 36.0838 248.169 36.4134C248.411 36.7429 248.554 37.1278 248.599 37.5682H247.359C247.291 37.2614 247.135 36.9972 246.891 36.7756C246.649 36.554 246.325 36.4432 245.919 36.4432C245.564 36.4432 245.253 36.5369 244.986 36.7244C244.722 36.9091 244.516 37.1733 244.368 37.517C244.22 37.858 244.146 38.2614 244.146 38.7273C244.146 39.2045 244.219 39.6165 244.364 39.9631C244.509 40.3097 244.713 40.5781 244.977 40.7685C245.244 40.9588 245.558 41.054 245.919 41.054C246.161 41.054 246.379 41.0099 246.575 40.9219C246.774 40.831 246.94 40.7017 247.074 40.5341C247.21 40.3665 247.305 40.1648 247.359 39.929H248.599C248.554 40.3523 248.416 40.7301 248.186 41.0625C247.956 41.3949 247.648 41.6562 247.261 41.8466C246.878 42.0369 246.428 42.1321 245.911 42.1321ZM252.719 42.1321C252.086 42.1321 251.54 41.9886 251.083 41.7017C250.628 41.4119 250.279 41.0128 250.034 40.5043C249.79 39.9957 249.668 39.4134 249.668 38.7571C249.668 38.0923 249.793 37.5057 250.043 36.9972C250.293 36.4858 250.645 36.0866 251.1 35.7997C251.554 35.5128 252.09 35.3693 252.706 35.3693C253.203 35.3693 253.647 35.4616 254.036 35.6463C254.425 35.8281 254.739 36.0838 254.978 36.4134C255.219 36.7429 255.363 37.1278 255.408 37.5682H254.168C254.1 37.2614 253.944 36.9972 253.699 36.7756C253.458 36.554 253.134 36.4432 252.728 36.4432C252.373 36.4432 252.061 36.5369 251.794 36.7244C251.53 36.9091 251.324 37.1733 251.176 37.517C251.029 37.858 250.955 38.2614 250.955 38.7273C250.955 39.2045 251.027 39.6165 251.172 39.9631C251.317 40.3097 251.522 40.5781 251.786 40.7685C252.053 40.9588 252.367 41.054 252.728 41.054C252.969 41.054 253.188 41.0099 253.384 40.9219C253.583 40.831 253.749 40.7017 253.882 40.5341C254.019 40.3665 254.114 40.1648 254.168 39.929H255.408C255.363 40.3523 255.225 40.7301 254.995 41.0625C254.765 41.3949 254.456 41.6562 254.07 41.8466C253.686 42.0369 253.236 42.1321 252.719 42.1321ZM259.528 42.1321C258.914 42.1321 258.379 41.9915 257.921 41.7102C257.464 41.429 257.109 41.0355 256.856 40.5298C256.603 40.0241 256.477 39.4332 256.477 38.7571C256.477 38.0781 256.603 37.4844 256.856 36.9759C257.109 36.4673 257.464 36.0724 257.921 35.7912C258.379 35.5099 258.914 35.3693 259.528 35.3693C260.141 35.3693 260.677 35.5099 261.134 35.7912C261.592 36.0724 261.947 36.4673 262.2 36.9759C262.452 37.4844 262.579 38.0781 262.579 38.7571C262.579 39.4332 262.452 40.0241 262.2 40.5298C261.947 41.0355 261.592 41.429 261.134 41.7102C260.677 41.9915 260.141 42.1321 259.528 42.1321ZM259.532 41.0625C259.93 41.0625 260.259 40.9574 260.521 40.7472C260.782 40.5369 260.975 40.2571 261.1 39.9077C261.228 39.5582 261.292 39.1733 261.292 38.7528C261.292 38.3352 261.228 37.9517 261.1 37.6023C260.975 37.25 260.782 36.9673 260.521 36.7543C260.259 36.5412 259.93 36.4347 259.532 36.4347C259.131 36.4347 258.799 36.5412 258.535 36.7543C258.273 36.9673 258.079 37.25 257.951 37.6023C257.826 37.9517 257.763 38.3352 257.763 38.7528C257.763 39.1733 257.826 39.5582 257.951 39.9077C258.079 40.2571 258.273 40.5369 258.535 40.7472C258.799 40.9574 259.131 41.0625 259.532 41.0625ZM268.147 39.2855V35.4545H269.426V42H268.173V40.8665H268.105C267.954 41.2159 267.713 41.5071 267.38 41.7401C267.051 41.9702 266.64 42.0852 266.149 42.0852C265.728 42.0852 265.356 41.9929 265.032 41.8082C264.711 41.6207 264.458 41.3438 264.274 40.9773C264.092 40.6108 264.001 40.1577 264.001 39.6179V35.4545H265.275V39.4645C265.275 39.9105 265.399 40.2656 265.646 40.5298C265.893 40.794 266.214 40.9261 266.609 40.9261C266.848 40.9261 267.085 40.8665 267.321 40.7472C267.559 40.6278 267.757 40.4474 267.913 40.206C268.072 39.9645 268.15 39.6577 268.147 39.2855ZM272.412 38.1136V42H271.138V35.4545H272.361V36.5199H272.442C272.592 36.1733 272.828 35.8949 273.149 35.6847C273.473 35.4744 273.881 35.3693 274.372 35.3693C274.818 35.3693 275.209 35.4631 275.544 35.6506C275.879 35.8352 276.139 36.1108 276.324 36.4773C276.509 36.8437 276.601 37.2969 276.601 37.8366V42H275.327V37.9901C275.327 37.5156 275.203 37.1449 274.956 36.8778C274.709 36.608 274.369 36.473 273.938 36.473C273.642 36.473 273.379 36.5369 273.149 36.6648C272.922 36.7926 272.741 36.9801 272.608 37.2273C272.477 37.4716 272.412 37.767 272.412 38.1136ZM281.365 35.4545V36.4773H277.79V35.4545H281.365ZM278.749 33.8864H280.023V40.0781C280.023 40.3253 280.06 40.5114 280.134 40.6364C280.207 40.7585 280.303 40.8423 280.419 40.8878C280.538 40.9304 280.668 40.9517 280.807 40.9517C280.909 40.9517 280.999 40.9446 281.075 40.9304C281.152 40.9162 281.212 40.9048 281.254 40.8963L281.484 41.9489C281.411 41.9773 281.305 42.0057 281.169 42.0341C281.033 42.0653 280.862 42.0824 280.658 42.0852C280.322 42.0909 280.01 42.0312 279.72 41.9062C279.43 41.7812 279.196 41.5881 279.017 41.3267C278.838 41.0653 278.749 40.7372 278.749 40.3423V33.8864ZM290.097 39.2855V35.4545H291.375V42H290.122V40.8665H290.054C289.903 41.2159 289.662 41.5071 289.33 41.7401C289 41.9702 288.589 42.0852 288.098 42.0852C287.678 42.0852 287.305 41.9929 286.982 41.8082C286.661 41.6207 286.408 41.3438 286.223 40.9773C286.041 40.6108 285.95 40.1577 285.95 39.6179V35.4545H287.224V39.4645C287.224 39.9105 287.348 40.2656 287.595 40.5298C287.842 40.794 288.163 40.9261 288.558 40.9261C288.797 40.9261 289.034 40.8665 289.27 40.7472C289.509 40.6278 289.706 40.4474 289.862 40.206C290.021 39.9645 290.099 39.6577 290.097 39.2855ZM297.992 37.0526L296.837 37.2571C296.789 37.1094 296.712 36.9687 296.607 36.8352C296.505 36.7017 296.365 36.5923 296.189 36.5071C296.013 36.4219 295.793 36.3793 295.529 36.3793C295.168 36.3793 294.867 36.4602 294.625 36.6222C294.384 36.7812 294.263 36.9872 294.263 37.2401C294.263 37.4588 294.344 37.6349 294.506 37.7685C294.668 37.902 294.929 38.0114 295.29 38.0966L296.33 38.3352C296.932 38.4744 297.381 38.6889 297.676 38.9787C297.972 39.2685 298.12 39.6449 298.12 40.108C298.12 40.5 298.006 40.8494 297.779 41.1562C297.554 41.4602 297.24 41.6989 296.837 41.8722C296.436 42.0455 295.972 42.1321 295.444 42.1321C294.711 42.1321 294.113 41.9759 293.65 41.6634C293.186 41.348 292.902 40.9006 292.797 40.321L294.029 40.1335C294.105 40.4545 294.263 40.6974 294.502 40.8622C294.74 41.0241 295.051 41.1051 295.435 41.1051C295.853 41.1051 296.186 41.0185 296.436 40.8452C296.686 40.669 296.811 40.4545 296.811 40.2017C296.811 39.9972 296.735 39.8253 296.581 39.6861C296.431 39.5469 296.199 39.4418 295.887 39.3707L294.779 39.1278C294.168 38.9886 293.716 38.767 293.424 38.4631C293.134 38.1591 292.989 37.7741 292.989 37.3082C292.989 36.9219 293.097 36.5838 293.313 36.294C293.529 36.0043 293.827 35.7784 294.208 35.6165C294.588 35.4517 295.025 35.3693 295.516 35.3693C296.223 35.3693 296.78 35.5227 297.186 35.8295C297.593 36.1335 297.861 36.5412 297.992 37.0526ZM301.971 42.1278C301.442 42.1278 300.971 41.9929 300.556 41.723C300.144 41.4503 299.82 41.0625 299.585 40.5597C299.352 40.054 299.235 39.4474 299.235 38.7401C299.235 38.0327 299.353 37.4276 299.589 36.9247C299.827 36.4219 300.154 36.0369 300.569 35.7699C300.984 35.5028 301.454 35.3693 301.979 35.3693C302.386 35.3693 302.712 35.4375 302.96 35.5739C303.21 35.7074 303.403 35.8636 303.539 36.0426C303.678 36.2216 303.786 36.3793 303.863 36.5156H303.94V35.4545H305.214V42H303.969V40.9815H303.863C303.786 41.1207 303.675 41.2798 303.531 41.4588C303.388 41.6378 303.192 41.794 302.942 41.9276C302.692 42.0611 302.369 42.1278 301.971 42.1278ZM302.252 41.0412C302.619 41.0412 302.928 40.9446 303.181 40.7514C303.437 40.5554 303.63 40.2841 303.761 39.9375C303.894 39.5909 303.961 39.1875 303.961 38.7273C303.961 38.2727 303.896 37.875 303.765 37.5341C303.634 37.1932 303.442 36.9276 303.19 36.7372C302.937 36.5469 302.624 36.4517 302.252 36.4517C301.869 36.4517 301.549 36.5511 301.293 36.75C301.038 36.9489 300.844 37.2202 300.714 37.5639C300.586 37.9077 300.522 38.2955 300.522 38.7273C300.522 39.1648 300.587 39.5582 300.718 39.9077C300.849 40.2571 301.042 40.5341 301.298 40.7386C301.556 40.9403 301.874 41.0412 302.252 41.0412ZM309.777 44.5909C309.257 44.5909 308.809 44.5227 308.434 44.3864C308.062 44.25 307.758 44.0696 307.522 43.8452C307.287 43.6207 307.11 43.375 306.994 43.108L308.089 42.6562C308.166 42.7812 308.268 42.9134 308.396 43.0526C308.527 43.1946 308.703 43.3153 308.924 43.4148C309.149 43.5142 309.437 43.5639 309.789 43.5639C310.272 43.5639 310.672 43.446 310.987 43.2102C311.302 42.9773 311.46 42.6051 311.46 42.0938V40.8068H311.379C311.302 40.946 311.191 41.1009 311.047 41.2713C310.904 41.4418 310.708 41.5895 310.458 41.7145C310.208 41.8395 309.883 41.902 309.483 41.902C308.966 41.902 308.5 41.7812 308.085 41.5398C307.673 41.2955 307.346 40.9361 307.105 40.4616C306.866 39.9844 306.747 39.3977 306.747 38.7017C306.747 38.0057 306.865 37.4091 307.1 36.9119C307.339 36.4148 307.666 36.0341 308.081 35.7699C308.495 35.5028 308.966 35.3693 309.491 35.3693C309.897 35.3693 310.225 35.4375 310.475 35.5739C310.725 35.7074 310.92 35.8636 311.059 36.0426C311.201 36.2216 311.311 36.3793 311.387 36.5156H311.481V35.4545H312.73V42.1449C312.73 42.7074 312.599 43.169 312.338 43.5298C312.076 43.8906 311.723 44.1577 311.277 44.331C310.833 44.5043 310.333 44.5909 309.777 44.5909ZM309.764 40.8452C310.13 40.8452 310.44 40.7599 310.693 40.5895C310.949 40.4162 311.142 40.169 311.272 39.848C311.406 39.5241 311.473 39.1364 311.473 38.6847C311.473 38.2443 311.407 37.8565 311.277 37.5213C311.146 37.1861 310.954 36.9247 310.701 36.7372C310.449 36.5469 310.136 36.4517 309.764 36.4517C309.38 36.4517 309.061 36.5511 308.805 36.75C308.549 36.946 308.356 37.2131 308.225 37.5511C308.098 37.8892 308.034 38.267 308.034 38.6847C308.034 39.1136 308.099 39.4901 308.23 39.8139C308.36 40.1378 308.554 40.3906 308.809 40.5724C309.068 40.7543 309.386 40.8452 309.764 40.8452ZM317.26 42.1321C316.615 42.1321 316.059 41.9943 315.593 41.7188C315.13 41.4403 314.772 41.0497 314.52 40.5469C314.27 40.0412 314.145 39.4489 314.145 38.7699C314.145 38.0994 314.27 37.5085 314.52 36.9972C314.772 36.4858 315.125 36.0866 315.576 35.7997C316.031 35.5128 316.562 35.3693 317.17 35.3693C317.539 35.3693 317.897 35.4304 318.244 35.5526C318.591 35.6747 318.902 35.8665 319.177 36.1278C319.453 36.3892 319.67 36.7287 319.829 37.1463C319.988 37.5611 320.068 38.0653 320.068 38.6591V39.1108H314.865V38.1562H318.819C318.819 37.821 318.751 37.5241 318.615 37.2656C318.478 37.0043 318.287 36.7983 318.039 36.6477C317.795 36.4972 317.508 36.4219 317.179 36.4219C316.821 36.4219 316.508 36.5099 316.241 36.6861C315.977 36.8594 315.772 37.0866 315.627 37.3679C315.485 37.6463 315.414 37.9489 315.414 38.2756V39.0213C315.414 39.4588 315.491 39.831 315.645 40.1378C315.801 40.4446 316.018 40.679 316.297 40.8409C316.575 41 316.9 41.0795 317.272 41.0795C317.514 41.0795 317.734 41.0455 317.933 40.9773C318.132 40.9062 318.304 40.8011 318.449 40.6619C318.593 40.5227 318.704 40.3509 318.781 40.1463L319.987 40.3636C319.89 40.7187 319.717 41.0298 319.467 41.2969C319.22 41.5611 318.909 41.767 318.534 41.9148C318.162 42.0597 317.737 42.1321 317.26 42.1321ZM326.386 37.0526L325.232 37.2571C325.183 37.1094 325.107 36.9687 325.001 36.8352C324.899 36.7017 324.76 36.5923 324.584 36.5071C324.408 36.4219 324.188 36.3793 323.923 36.3793C323.563 36.3793 323.261 36.4602 323.02 36.6222C322.778 36.7812 322.658 36.9872 322.658 37.2401C322.658 37.4588 322.739 37.6349 322.901 37.7685C323.063 37.902 323.324 38.0114 323.685 38.0966L324.724 38.3352C325.327 38.4744 325.776 38.6889 326.071 38.9787C326.366 39.2685 326.514 39.6449 326.514 40.108C326.514 40.5 326.401 40.8494 326.173 41.1562C325.949 41.4602 325.635 41.6989 325.232 41.8722C324.831 42.0455 324.366 42.1321 323.838 42.1321C323.105 42.1321 322.507 41.9759 322.044 41.6634C321.581 41.348 321.297 40.9006 321.192 40.321L322.423 40.1335C322.5 40.4545 322.658 40.6974 322.896 40.8622C323.135 41.0241 323.446 41.1051 323.83 41.1051C324.247 41.1051 324.581 41.0185 324.831 40.8452C325.081 40.669 325.206 40.4545 325.206 40.2017C325.206 39.9972 325.129 39.8253 324.976 39.6861C324.825 39.5469 324.594 39.4418 324.281 39.3707L323.173 39.1278C322.563 38.9886 322.111 38.767 321.818 38.4631C321.528 38.1591 321.384 37.7741 321.384 37.3082C321.384 36.9219 321.491 36.5838 321.707 36.294C321.923 36.0043 322.222 35.7784 322.602 35.6165C322.983 35.4517 323.419 35.3693 323.911 35.3693C324.618 35.3693 325.175 35.5227 325.581 35.8295C325.987 36.1335 326.256 36.5412 326.386 37.0526Z" fill="#00313D"/>
<path d="M405 11C405 5.47715 409.477 1 415 1C420.523 1 425 5.47715 425 11C425 16.5228 420.523 21 415 21C409.477 21 405 16.5228 405 11Z" fill="#76BBB1"/>
<mask id="mask3_70_7106" style="mask-type:alpha" maskUnits="userSpaceOnUse" x="410" y="6" width="10" height="10">
<path fill-rule="evenodd" clip-rule="evenodd" d="M418.658 8.27903C418.781 8.40107 418.781 8.59893 418.658 8.72097L414.283 13.096C414.225 13.1546 414.145 13.1875 414.062 13.1875C413.98 13.1875 413.9 13.1546 413.842 13.096L411.654 10.9085C411.532 10.7864 411.532 10.5886 411.654 10.4665C411.776 10.3445 411.974 10.3445 412.096 10.4665L414.062 12.4331L418.217 8.27903C418.339 8.15699 418.536 8.15699 418.658 8.27903Z" fill="black"/>
</mask>
<g mask="url(#mask3_70_7106)">
<rect x="410" y="6" width="10" height="10" fill="white"/>
</g>
<path d="M360.959 42V33.2727H364.155C364.774 33.2727 365.287 33.375 365.693 33.5795C366.099 33.7812 366.403 34.0554 366.605 34.402C366.807 34.7457 366.908 35.1335 366.908 35.5653C366.908 35.929 366.841 36.2358 366.707 36.4858C366.574 36.733 366.395 36.9318 366.17 37.0824C365.949 37.2301 365.705 37.3381 365.438 37.4062V37.4915C365.727 37.5057 366.01 37.5994 366.286 37.7727C366.564 37.9432 366.794 38.1861 366.976 38.5014C367.158 38.8168 367.249 39.2003 367.249 39.652C367.249 40.098 367.143 40.4986 366.933 40.8537C366.726 41.206 366.405 41.4858 365.97 41.6932C365.536 41.8977 364.98 42 364.304 42H360.959ZM362.276 40.8707H364.176C364.807 40.8707 365.259 40.7486 365.531 40.5043C365.804 40.2599 365.94 39.9545 365.94 39.5881C365.94 39.3125 365.871 39.0597 365.732 38.8295C365.592 38.5994 365.393 38.4162 365.135 38.2798C364.879 38.1435 364.575 38.0753 364.223 38.0753H362.276V40.8707ZM362.276 37.0483H364.04C364.335 37.0483 364.601 36.9915 364.837 36.8778C365.075 36.7642 365.264 36.6051 365.403 36.4006C365.545 36.1932 365.616 35.9489 365.616 35.6676C365.616 35.3068 365.49 35.0043 365.237 34.7599C364.984 34.5156 364.597 34.3935 364.074 34.3935H362.276V37.0483ZM371.529 42.1321C370.884 42.1321 370.329 41.9943 369.863 41.7188C369.4 41.4403 369.042 41.0497 368.789 40.5469C368.539 40.0412 368.414 39.4489 368.414 38.7699C368.414 38.0994 368.539 37.5085 368.789 36.9972C369.042 36.4858 369.394 36.0866 369.846 35.7997C370.3 35.5128 370.832 35.3693 371.44 35.3693C371.809 35.3693 372.167 35.4304 372.513 35.5526C372.86 35.6747 373.171 35.8665 373.447 36.1278C373.722 36.3892 373.94 36.7287 374.099 37.1463C374.258 37.5611 374.337 38.0653 374.337 38.6591V39.1108H369.134V38.1562H373.089C373.089 37.821 373.021 37.5241 372.884 37.2656C372.748 37.0043 372.556 36.7983 372.309 36.6477C372.065 36.4972 371.778 36.4219 371.448 36.4219C371.09 36.4219 370.778 36.5099 370.511 36.6861C370.246 36.8594 370.042 37.0866 369.897 37.3679C369.755 37.6463 369.684 37.9489 369.684 38.2756V39.0213C369.684 39.4588 369.761 39.831 369.914 40.1378C370.07 40.4446 370.288 40.679 370.566 40.8409C370.844 41 371.17 41.0795 371.542 41.0795C371.783 41.0795 372.004 41.0455 372.202 40.9773C372.401 40.9062 372.573 40.8011 372.718 40.6619C372.863 40.5227 372.974 40.3509 373.05 40.1463L374.256 40.3636C374.16 40.7187 373.987 41.0298 373.737 41.2969C373.489 41.5611 373.178 41.767 372.803 41.9148C372.431 42.0597 372.006 42.1321 371.529 42.1321ZM377.025 38.1136V42H375.751V35.4545H376.974V36.5199H377.055C377.206 36.1733 377.441 35.8949 377.762 35.6847C378.086 35.4744 378.494 35.3693 378.985 35.3693C379.431 35.3693 379.822 35.4631 380.157 35.6506C380.493 35.8352 380.752 36.1108 380.937 36.4773C381.122 36.8437 381.214 37.2969 381.214 37.8366V42H379.94V37.9901C379.94 37.5156 379.816 37.1449 379.569 36.8778C379.322 36.608 378.983 36.473 378.551 36.473C378.255 36.473 377.993 36.5369 377.762 36.6648C377.535 36.7926 377.355 36.9801 377.221 37.2273C377.091 37.4716 377.025 37.767 377.025 38.1136ZM385.744 42.1321C385.099 42.1321 384.544 41.9943 384.078 41.7188C383.615 41.4403 383.257 41.0497 383.004 40.5469C382.754 40.0412 382.629 39.4489 382.629 38.7699C382.629 38.0994 382.754 37.5085 383.004 36.9972C383.257 36.4858 383.609 36.0866 384.061 35.7997C384.515 35.5128 385.047 35.3693 385.654 35.3693C386.024 35.3693 386.382 35.4304 386.728 35.5526C387.075 35.6747 387.386 35.8665 387.662 36.1278C387.937 36.3892 388.154 36.7287 388.314 37.1463C388.473 37.5611 388.552 38.0653 388.552 38.6591V39.1108H383.349V38.1562H387.304C387.304 37.821 387.235 37.5241 387.099 37.2656C386.963 37.0043 386.771 36.7983 386.524 36.6477C386.279 36.4972 385.993 36.4219 385.663 36.4219C385.305 36.4219 384.993 36.5099 384.725 36.6861C384.461 36.8594 384.257 37.0866 384.112 37.3679C383.97 37.6463 383.899 37.9489 383.899 38.2756V39.0213C383.899 39.4588 383.975 39.831 384.129 40.1378C384.285 40.4446 384.502 40.679 384.781 40.8409C385.059 41 385.385 41.0795 385.757 41.0795C385.998 41.0795 386.218 41.0455 386.417 40.9773C386.616 40.9062 386.788 40.8011 386.933 40.6619C387.078 40.5227 387.189 40.3509 387.265 40.1463L388.471 40.3636C388.375 40.7187 388.201 41.0298 387.951 41.2969C387.704 41.5611 387.393 41.767 387.018 41.9148C386.646 42.0597 386.221 42.1321 385.744 42.1321ZM393.081 35.4545V36.4773H389.382V35.4545H393.081ZM390.396 42V34.696C390.396 34.2869 390.486 33.9474 390.665 33.6776C390.844 33.4048 391.081 33.2017 391.376 33.0682C391.672 32.9318 391.993 32.8636 392.339 32.8636C392.595 32.8636 392.814 32.8849 392.996 32.9276C393.178 32.9673 393.312 33.0043 393.401 33.0384L393.102 34.0696C393.043 34.0526 392.966 34.0327 392.872 34.0099C392.778 33.9844 392.665 33.9716 392.531 33.9716C392.222 33.9716 392 34.0483 391.866 34.2017C391.736 34.3551 391.67 34.5767 391.67 34.8665V42H390.396ZM394.396 42V35.4545H395.67V42H394.396ZM395.039 34.4446C394.817 34.4446 394.627 34.3707 394.468 34.223C394.312 34.0724 394.234 33.8935 394.234 33.6861C394.234 33.4759 394.312 33.2969 394.468 33.1491C394.627 32.9986 394.817 32.9233 395.039 32.9233C395.261 32.9233 395.45 32.9986 395.606 33.1491C395.765 33.2969 395.844 33.4759 395.844 33.6861C395.844 33.8935 395.765 34.0724 395.606 34.223C395.45 34.3707 395.261 34.4446 395.039 34.4446ZM400.141 42.1321C399.507 42.1321 398.962 41.9886 398.505 41.7017C398.05 41.4119 397.701 41.0128 397.456 40.5043C397.212 39.9957 397.09 39.4134 397.09 38.7571C397.09 38.0923 397.215 37.5057 397.465 36.9972C397.715 36.4858 398.067 36.0866 398.522 35.7997C398.976 35.5128 399.512 35.3693 400.128 35.3693C400.625 35.3693 401.069 35.4616 401.458 35.6463C401.847 35.8281 402.161 36.0838 402.4 36.4134C402.641 36.7429 402.784 37.1278 402.83 37.5682H401.59C401.522 37.2614 401.365 36.9972 401.121 36.7756C400.88 36.554 400.556 36.4432 400.15 36.4432C399.794 36.4432 399.483 36.5369 399.216 36.7244C398.952 36.9091 398.746 37.1733 398.598 37.517C398.451 37.858 398.377 38.2614 398.377 38.7273C398.377 39.2045 398.449 39.6165 398.594 39.9631C398.739 40.3097 398.944 40.5781 399.208 40.7685C399.475 40.9588 399.789 41.054 400.15 41.054C400.391 41.054 400.61 41.0099 400.806 40.9219C401.005 40.831 401.171 40.7017 401.304 40.5341C401.441 40.3665 401.536 40.1648 401.59 39.929H402.83C402.784 40.3523 402.647 40.7301 402.417 41.0625C402.186 41.3949 401.878 41.6562 401.492 41.8466C401.108 42.0369 400.658 42.1321 400.141 42.1321ZM404.192 42V35.4545H405.467V42H404.192ZM404.836 34.4446C404.614 34.4446 404.424 34.3707 404.265 34.223C404.109 34.0724 404.031 33.8935 404.031 33.6861C404.031 33.4759 404.109 33.2969 404.265 33.1491C404.424 32.9986 404.614 32.9233 404.836 32.9233C405.058 32.9233 405.246 32.9986 405.403 33.1491C405.562 33.2969 405.641 33.4759 405.641 33.6861C405.641 33.8935 405.562 34.0724 405.403 34.223C405.246 34.3707 405.058 34.4446 404.836 34.4446ZM409.631 42.1278C409.103 42.1278 408.631 41.9929 408.216 41.723C407.804 41.4503 407.48 41.0625 407.245 40.5597C407.012 40.054 406.895 39.4474 406.895 38.7401C406.895 38.0327 407.013 37.4276 407.249 36.9247C407.488 36.4219 407.814 36.0369 408.229 35.7699C408.644 35.5028 409.114 35.3693 409.64 35.3693C410.046 35.3693 410.373 35.4375 410.62 35.5739C410.87 35.7074 411.063 35.8636 411.199 36.0426C411.338 36.2216 411.446 36.3793 411.523 36.5156H411.6V35.4545H412.874V42H411.63V40.9815H411.523C411.446 41.1207 411.336 41.2798 411.191 41.4588C411.049 41.6378 410.853 41.794 410.603 41.9276C410.353 42.0611 410.029 42.1278 409.631 42.1278ZM409.912 41.0412C410.279 41.0412 410.588 40.9446 410.841 40.7514C411.097 40.5554 411.29 40.2841 411.421 39.9375C411.554 39.5909 411.621 39.1875 411.621 38.7273C411.621 38.2727 411.556 37.875 411.425 37.5341C411.294 37.1932 411.103 36.9276 410.85 36.7372C410.597 36.5469 410.284 36.4517 409.912 36.4517C409.529 36.4517 409.209 36.5511 408.953 36.75C408.698 36.9489 408.505 37.2202 408.374 37.5639C408.246 37.9077 408.182 38.2955 408.182 38.7273C408.182 39.1648 408.248 39.5582 408.378 39.9077C408.509 40.2571 408.702 40.5341 408.958 40.7386C409.216 40.9403 409.534 41.0412 409.912 41.0412ZM414.692 33.2727H415.967V40.2102C415.967 40.4915 416.002 40.6903 416.073 40.8068C416.147 40.9233 416.286 40.9787 416.491 40.973C416.602 40.9702 416.684 40.9631 416.738 40.9517C416.795 40.9403 416.846 40.9276 416.891 40.9134L417.121 41.9318C417.033 41.9574 416.921 41.9815 416.785 42.0043C416.651 42.0298 416.499 42.044 416.329 42.0469C415.778 42.0554 415.367 41.9247 415.097 41.6548C414.827 41.3849 414.692 40.9915 414.692 40.4744V33.2727ZM422.867 37.0526L421.712 37.2571C421.664 37.1094 421.587 36.9687 421.482 36.8352C421.38 36.7017 421.24 36.5923 421.064 36.5071C420.888 36.4219 420.668 36.3793 420.404 36.3793C420.043 36.3793 419.742 36.4602 419.5 36.6222C419.259 36.7812 419.138 36.9872 419.138 37.2401C419.138 37.4588 419.219 37.6349 419.381 37.7685C419.543 37.902 419.804 38.0114 420.165 38.0966L421.205 38.3352C421.807 38.4744 422.256 38.6889 422.551 38.9787C422.847 39.2685 422.995 39.6449 422.995 40.108C422.995 40.5 422.881 40.8494 422.654 41.1562C422.429 41.4602 422.115 41.6989 421.712 41.8722C421.311 42.0455 420.847 42.1321 420.319 42.1321C419.586 42.1321 418.988 41.9759 418.525 41.6634C418.061 41.348 417.777 40.9006 417.672 40.321L418.904 40.1335C418.98 40.4545 419.138 40.6974 419.377 40.8622C419.615 41.0241 419.926 41.1051 420.31 41.1051C420.728 41.1051 421.061 41.0185 421.311 40.8452C421.561 40.669 421.686 40.4545 421.686 40.2017C421.686 39.9972 421.61 39.8253 421.456 39.6861C421.306 39.5469 421.074 39.4418 420.762 39.3707L419.654 39.1278C419.043 38.9886 418.591 38.767 418.299 38.4631C418.009 38.1591 417.864 37.7741 417.864 37.3082C417.864 36.9219 417.972 36.5838 418.188 36.294C418.404 36.0043 418.702 35.7784 419.083 35.6165C419.463 35.4517 419.9 35.3693 420.391 35.3693C421.098 35.3693 421.655 35.5227 422.061 35.8295C422.468 36.1335 422.736 36.5412 422.867 37.0526ZM430.328 42.1321C429.715 42.1321 429.179 41.9915 428.722 41.7102C428.265 41.429 427.909 41.0355 427.657 40.5298C427.404 40.0241 427.277 39.4332 427.277 38.7571C427.277 38.0781 427.404 37.4844 427.657 36.9759C427.909 36.4673 428.265 36.0724 428.722 35.7912C429.179 35.5099 429.715 35.3693 430.328 35.3693C430.942 35.3693 431.478 35.5099 431.935 35.7912C432.392 36.0724 432.748 36.4673 433 36.9759C433.253 37.4844 433.38 38.0781 433.38 38.7571C433.38 39.4332 433.253 40.0241 433 40.5298C432.748 41.0355 432.392 41.429 431.935 41.7102C431.478 41.9915 430.942 42.1321 430.328 42.1321ZM430.333 41.0625C430.73 41.0625 431.06 40.9574 431.321 40.7472C431.583 40.5369 431.776 40.2571 431.901 39.9077C432.029 39.5582 432.093 39.1733 432.093 38.7528C432.093 38.3352 432.029 37.9517 431.901 37.6023C431.776 37.25 431.583 36.9673 431.321 36.7543C431.06 36.5412 430.73 36.4347 430.333 36.4347C429.932 36.4347 429.6 36.5412 429.336 36.7543C429.074 36.9673 428.88 37.25 428.752 37.6023C428.627 37.9517 428.564 38.3352 428.564 38.7528C428.564 39.1733 428.627 39.5582 428.752 39.9077C428.88 40.2571 429.074 40.5369 429.336 40.7472C429.6 40.9574 429.932 41.0625 430.333 41.0625ZM436.022 42L434.096 35.4545H435.412L436.695 40.2614H436.759L438.046 35.4545H439.363L440.641 40.2401H440.705L441.979 35.4545H443.296L441.374 42H440.074L438.745 37.2741H438.647L437.317 42H436.022ZM445.779 38.1136V42H444.505V35.4545H445.728V36.5199H445.809C445.96 36.1733 446.195 35.8949 446.516 35.6847C446.84 35.4744 447.248 35.3693 447.739 35.3693C448.185 35.3693 448.576 35.4631 448.911 35.6506C449.246 35.8352 449.506 36.1108 449.691 36.4773C449.876 36.8437 449.968 37.2969 449.968 37.8366V42H448.694V37.9901C448.694 37.5156 448.57 37.1449 448.323 36.8778C448.076 36.608 447.737 36.473 447.305 36.473C447.009 36.473 446.746 36.5369 446.516 36.6648C446.289 36.7926 446.109 36.9801 445.975 37.2273C445.844 37.4716 445.779 37.767 445.779 38.1136ZM454.498 42.1321C453.853 42.1321 453.298 41.9943 452.832 41.7188C452.369 41.4403 452.011 41.0497 451.758 40.5469C451.508 40.0412 451.383 39.4489 451.383 38.7699C451.383 38.0994 451.508 37.5085 451.758 36.9972C452.011 36.4858 452.363 36.0866 452.815 35.7997C453.269 35.5128 453.8 35.3693 454.408 35.3693C454.778 35.3693 455.136 35.4304 455.482 35.5526C455.829 35.6747 456.14 35.8665 456.415 36.1278C456.691 36.3892 456.908 36.7287 457.067 37.1463C457.227 37.5611 457.306 38.0653 457.306 38.6591V39.1108H452.103V38.1562H456.058C456.058 37.821 455.989 37.5241 455.853 37.2656C455.717 37.0043 455.525 36.7983 455.278 36.6477C455.033 36.4972 454.746 36.4219 454.417 36.4219C454.059 36.4219 453.746 36.5099 453.479 36.6861C453.215 36.8594 453.011 37.0866 452.866 37.3679C452.724 37.6463 452.653 37.9489 452.653 38.2756V39.0213C452.653 39.4588 452.729 39.831 452.883 40.1378C453.039 40.4446 453.256 40.679 453.535 40.8409C453.813 41 454.138 41.0795 454.511 41.0795C454.752 41.0795 454.972 41.0455 455.171 40.9773C455.37 40.9062 455.542 40.8011 455.687 40.6619C455.832 40.5227 455.942 40.3509 456.019 40.1463L457.225 40.3636C457.129 40.7187 456.955 41.0298 456.705 41.2969C456.458 41.5611 456.147 41.767 455.772 41.9148C455.4 42.0597 454.975 42.1321 454.498 42.1321ZM458.72 42V35.4545H459.951V36.4943H460.02C460.139 36.142 460.349 35.8651 460.65 35.6634C460.951 35.4588 461.295 35.3565 461.681 35.3565C461.86 35.3565 462.021 35.3778 462.163 35.4205C462.305 35.4631 462.43 35.5213 462.538 35.5952L462.129 36.6605C462.052 36.6236 461.966 36.5937 461.869 36.571C461.772 36.5455 461.662 36.5327 461.537 36.5327C461.241 36.5327 460.977 36.5966 460.744 36.7244C460.514 36.8494 460.331 37.0227 460.194 37.2443C460.061 37.4659 459.994 37.7187 459.994 38.0028V42H458.72ZM468.382 37.0526L467.228 37.2571C467.179 37.1094 467.103 36.9687 466.998 36.8352C466.895 36.7017 466.756 36.5923 466.58 36.5071C466.404 36.4219 466.184 36.3793 465.919 36.3793C465.559 36.3793 465.257 36.4602 465.016 36.6222C464.775 36.7812 464.654 36.9872 464.654 37.2401C464.654 37.4588 464.735 37.6349 464.897 37.7685C465.059 37.902 465.32 38.0114 465.681 38.0966L466.721 38.3352C467.323 38.4744 467.772 38.6889 468.067 38.9787C468.363 39.2685 468.51 39.6449 468.51 40.108C468.51 40.5 468.397 40.8494 468.169 41.1562C467.945 41.4602 467.631 41.6989 467.228 41.8722C466.827 42.0455 466.363 42.1321 465.834 42.1321C465.101 42.1321 464.503 41.9759 464.04 41.6634C463.577 41.348 463.293 40.9006 463.188 40.321L464.419 40.1335C464.496 40.4545 464.654 40.6974 464.892 40.8622C465.131 41.0241 465.442 41.1051 465.826 41.1051C466.243 41.1051 466.577 41.0185 466.827 40.8452C467.077 40.669 467.202 40.4545 467.202 40.2017C467.202 39.9972 467.125 39.8253 466.972 39.6861C466.821 39.5469 466.59 39.4418 466.277 39.3707L465.169 39.1278C464.559 38.9886 464.107 38.767 463.814 38.4631C463.525 38.1591 463.38 37.7741 463.38 37.3082C463.38 36.9219 463.488 36.5838 463.703 36.294C463.919 36.0043 464.218 35.7784 464.598 35.6165C464.979 35.4517 465.415 35.3693 465.907 35.3693C466.614 35.3693 467.171 35.5227 467.577 35.8295C467.983 36.1335 468.252 36.5412 468.382 37.0526Z" fill="#00313D"/>
<path fill-rule="evenodd" clip-rule="evenodd" d="M314 12V10L387 10V12L351.23 12L314 12Z" fill="#00313D"/>
<path fill-rule="evenodd" clip-rule="evenodd" d="M185 11V9L258 9V11L222.23 11L185 11Z" fill="#00313D"/>
<path fill-rule="evenodd" clip-rule="evenodd" d="M63 10V8L138 8V10L101.25 10L63 10Z" fill="#00313D"/>
</svg>
