<svg width="414" height="27" viewBox="0 0 414 27" fill="none" xmlns="http://www.w3.org/2000/svg">
<path d="M0.606756 7.5V5.42898C0.606756 4.84091 0.721813 4.24006 0.951926 3.62642C1.18204 3.01278 1.48566 2.4343 1.86279 1.89098C2.23992 1.34766 2.64901 0.89382 3.09007 0.529474L4.89262 1.59375C4.53467 2.15625 4.24063 2.74432 4.01052 3.35795C3.7868 3.97159 3.67494 4.65554 3.67494 5.4098V7.5H0.606756ZM5.44873 7.5V5.42898C5.44873 4.84091 5.56379 4.24006 5.7939 3.62642C6.02401 3.01278 6.32764 2.4343 6.70477 1.89098C7.0819 1.34766 7.49099 0.89382 7.93204 0.529474L9.7346 1.59375C9.37664 2.15625 9.08261 2.74432 8.85249 3.35795C8.62877 3.97159 8.51691 4.65554 8.51691 5.4098V7.5H5.44873ZM22.8703 7.01101C22.7935 6.23757 22.4644 5.63672 21.8827 5.20845C21.301 4.78018 20.5116 4.56605 19.5144 4.56605C18.8369 4.56605 18.2648 4.66193 17.7982 4.85369C17.3315 5.03906 16.9736 5.29794 16.7243 5.63033C16.4814 5.96271 16.36 6.33984 16.36 6.76172C16.3472 7.11328 16.4207 7.4201 16.5805 7.68217C16.7467 7.94425 16.9736 8.17116 17.2612 8.36293C17.5489 8.54829 17.8813 8.71129 18.2584 8.85192C18.6355 8.98615 19.0382 9.10121 19.4665 9.19709L21.2307 9.61896C22.0872 9.81072 22.8734 10.0664 23.5894 10.386C24.3053 10.7056 24.9253 11.0987 25.4494 11.5653C25.9736 12.032 26.3795 12.5817 26.6671 13.2145C26.9612 13.8473 27.1114 14.5728 27.1178 15.391C27.1114 16.5927 26.8046 17.6346 26.1973 18.5167C25.5965 19.3924 24.7271 20.0732 23.5894 20.5589C22.458 21.0384 21.0933 21.2781 19.4953 21.2781C17.91 21.2781 16.5293 21.0352 15.3532 20.5494C14.1835 20.0636 13.2694 19.3445 12.611 18.392C11.959 17.4332 11.6171 16.2475 11.5851 14.8349H15.6025C15.6472 15.4933 15.8358 16.043 16.1682 16.484C16.507 16.9187 16.9576 17.2479 17.5201 17.4716C18.089 17.6889 18.7314 17.7976 19.4473 17.7976C20.1504 17.7976 20.7609 17.6953 21.2786 17.4908C21.8028 17.2862 22.2087 17.0018 22.4963 16.6374C22.784 16.2731 22.9278 15.8544 22.9278 15.3814C22.9278 14.9403 22.7967 14.5696 22.5347 14.2692C22.279 13.9687 21.9019 13.7131 21.4033 13.5021C20.9111 13.2912 20.307 13.0994 19.5911 12.9268L17.453 12.3899C15.7975 11.9872 14.4903 11.3576 13.5315 10.5011C12.5727 9.64453 12.0965 8.49077 12.1028 7.03977C12.0965 5.85085 12.4129 4.81214 13.0521 3.92365C13.6977 3.03516 14.583 2.34162 15.708 1.84304C16.833 1.34446 18.1114 1.09517 19.5432 1.09517C21.0006 1.09517 22.2726 1.34446 23.3592 1.84304C24.4523 2.34162 25.3024 3.03516 25.9097 3.92365C26.5169 4.81214 26.8301 5.84126 26.8493 7.01101H22.8703ZM29.8336 21V6.27273H33.9181V21H29.8336ZM31.8854 4.37429C31.2782 4.37429 30.7572 4.17294 30.3226 3.77024C29.8943 3.36115 29.6802 2.87216 29.6802 2.30327C29.6802 1.74077 29.8943 1.25817 30.3226 0.855469C30.7572 0.446377 31.2782 0.241831 31.8854 0.241831C32.4927 0.241831 33.0104 0.446377 33.4387 0.855469C33.8734 1.25817 34.0907 1.74077 34.0907 2.30327C34.0907 2.87216 33.8734 3.36115 33.4387 3.77024C33.0104 4.17294 32.4927 4.37429 31.8854 4.37429ZM37.19 21V6.27273H41.0828V8.87109H41.2554C41.5622 8.00817 42.0736 7.32741 42.7895 6.82883C43.5054 6.33026 44.3619 6.08097 45.3591 6.08097C46.369 6.08097 47.2287 6.33345 47.9383 6.83842C48.6478 7.337 49.1208 8.01456 49.3573 8.87109H49.5107C49.8111 8.02734 50.3544 7.35298 51.1407 6.84801C51.9333 6.33665 52.8697 6.08097 53.95 6.08097C55.3243 6.08097 56.4397 6.51882 57.2962 7.39453C58.1591 8.26385 58.5906 9.49751 58.5906 11.0955V21H54.5157V11.9009C54.5157 11.0827 54.2983 10.4691 53.8637 10.06C53.429 9.65092 52.8857 9.44638 52.2337 9.44638C51.4922 9.44638 50.9138 9.68288 50.4983 10.1559C50.0828 10.6225 49.875 11.2393 49.875 12.0064V21H45.9152V11.8146C45.9152 11.0923 45.7074 10.517 45.2919 10.0888C44.8829 9.66051 44.3427 9.44638 43.6716 9.44638C43.2177 9.44638 42.8086 9.56143 42.4443 9.79155C42.0863 10.0153 41.8019 10.3317 41.591 10.7408C41.38 11.1435 41.2745 11.6165 41.2745 12.1598V21H37.19ZM61.817 26.5227V6.27273H65.844V8.74645H66.0261C66.2051 8.35014 66.464 7.94744 66.8028 7.53835C67.1479 7.12287 67.5954 6.7777 68.1451 6.50284C68.7012 6.22159 69.3916 6.08097 70.2161 6.08097C71.29 6.08097 72.2808 6.36222 73.1884 6.92472C74.0961 7.48082 74.8216 8.32138 75.3649 9.44638C75.9082 10.565 76.1799 11.968 76.1799 13.6555C76.1799 15.2983 75.9146 16.6854 75.3841 17.8168C74.86 18.9418 74.144 19.7951 73.2364 20.3768C72.3351 20.9521 71.3252 21.2397 70.2065 21.2397C69.4139 21.2397 68.7396 21.1087 68.1835 20.8466C67.6337 20.5845 67.1831 20.2553 66.8315 19.859C66.48 19.4563 66.2115 19.0504 66.0261 18.6413H65.9015V26.5227H61.817ZM65.8152 13.6364C65.8152 14.5121 65.9367 15.2759 66.1796 15.9279C66.4225 16.5799 66.774 17.0881 67.2342 17.4524C67.6945 17.8104 68.2538 17.9893 68.9122 17.9893C69.5769 17.9893 70.1394 17.8072 70.5997 17.4428C71.0599 17.0721 71.4082 16.5607 71.6448 15.9087C71.8877 15.2504 72.0091 14.4929 72.0091 13.6364C72.0091 12.7862 71.8908 12.0384 71.6543 11.3928C71.4178 10.7472 71.0695 10.2422 70.6092 9.87784C70.149 9.51349 69.5833 9.33132 68.9122 9.33132C68.2474 9.33132 67.6849 9.5071 67.2247 9.85866C66.7708 10.2102 66.4225 10.7088 66.1796 11.3544C65.9367 12 65.8152 12.7607 65.8152 13.6364ZM82.9874 1.36364V21H78.9029V1.36364H82.9874ZM86.2594 21V6.27273H90.3439V21H86.2594ZM88.3112 4.37429C87.704 4.37429 87.183 4.17294 86.7484 3.77024C86.3201 3.36115 86.106 2.87216 86.106 2.30327C86.106 1.74077 86.3201 1.25817 86.7484 0.855469C87.183 0.446377 87.704 0.241831 88.3112 0.241831C88.9185 0.241831 89.4362 0.446377 89.8645 0.855469C90.2991 1.25817 90.5165 1.74077 90.5165 2.30327C90.5165 2.87216 90.2991 3.36115 89.8645 3.77024C89.4362 4.17294 88.9185 4.37429 88.3112 4.37429ZM101.536 6.27273V9.34091H92.4461V6.27273H101.536ZM94.5267 21V5.20845C94.5267 4.14098 94.7344 3.25568 95.1499 2.55256C95.5718 1.84943 96.1471 1.32209 96.8758 0.970524C97.6044 0.618962 98.4322 0.443181 99.3591 0.443181C99.9855 0.443181 100.558 0.491121 101.075 0.587003C101.599 0.682883 101.989 0.769176 102.245 0.84588L101.516 3.91406C101.357 3.86293 101.158 3.81498 100.922 3.77024C100.692 3.7255 100.455 3.70312 100.212 3.70312C99.6115 3.70312 99.1929 3.84375 98.9564 4.125C98.7199 4.39986 98.6016 4.78658 98.6016 5.28516V21H94.5267ZM104.031 21V6.27273H108.115V21H104.031ZM106.083 4.37429C105.475 4.37429 104.955 4.17294 104.52 3.77024C104.092 3.36115 103.877 2.87216 103.877 2.30327C103.877 1.74077 104.092 1.25817 104.52 0.855469C104.955 0.446377 105.475 0.241831 106.083 0.241831C106.69 0.241831 107.208 0.446377 107.636 0.855469C108.071 1.25817 108.288 1.74077 108.288 2.30327C108.288 2.87216 108.071 3.36115 107.636 3.77024C107.208 4.17294 106.69 4.37429 106.083 4.37429ZM118.099 21.2876C116.584 21.2876 115.28 20.9808 114.187 20.3672C113.1 19.7472 112.263 18.8714 111.675 17.7401C111.087 16.6023 110.793 15.2567 110.793 13.7035C110.793 12.1886 111.087 10.859 111.675 9.71484C112.263 8.57067 113.091 7.67898 114.158 7.03977C115.232 6.40057 116.491 6.08097 117.936 6.08097C118.908 6.08097 119.812 6.23757 120.649 6.55078C121.493 6.8576 122.228 7.32102 122.855 7.94105C123.487 8.56108 123.98 9.34091 124.331 10.2805C124.683 11.2138 124.859 12.3068 124.859 13.5597V14.6815H112.423V12.1502H121.014C121.014 11.5621 120.886 11.0412 120.63 10.5874C120.375 10.1335 120.02 9.77876 119.566 9.52308C119.118 9.26101 118.598 9.12997 118.003 9.12997C117.383 9.12997 116.833 9.27379 116.354 9.56143C115.881 9.84268 115.51 10.223 115.242 10.7024C114.973 11.1754 114.836 11.7028 114.829 12.2844V14.6911C114.829 15.4197 114.964 16.0494 115.232 16.5799C115.507 17.1104 115.894 17.5195 116.392 17.8072C116.891 18.0948 117.482 18.2386 118.166 18.2386C118.62 18.2386 119.035 18.1747 119.413 18.0469C119.79 17.919 120.112 17.7273 120.381 17.4716C120.649 17.2159 120.854 16.9027 120.995 16.532L124.772 16.7812C124.58 17.6889 124.187 18.4815 123.593 19.1591C123.005 19.8303 122.244 20.3544 121.311 20.7315C120.384 21.1023 119.313 21.2876 118.099 21.2876ZM132.951 21.2397C131.832 21.2397 130.819 20.9521 129.911 20.3768C129.01 19.7951 128.294 18.9418 127.764 17.8168C127.24 16.6854 126.977 15.2983 126.977 13.6555C126.977 11.968 127.249 10.565 127.792 9.44638C128.336 8.32138 129.058 7.48082 129.959 6.92472C130.867 6.36222 131.861 6.08097 132.941 6.08097C133.766 6.08097 134.453 6.22159 135.003 6.50284C135.559 6.7777 136.006 7.12287 136.345 7.53835C136.69 7.94744 136.952 8.35014 137.131 8.74645H137.256V1.36364H141.331V21H137.304V18.6413H137.131C136.939 19.0504 136.668 19.4563 136.316 19.859C135.971 20.2553 135.52 20.5845 134.964 20.8466C134.415 21.1087 133.743 21.2397 132.951 21.2397ZM134.245 17.9893C134.904 17.9893 135.46 17.8104 135.914 17.4524C136.374 17.0881 136.725 16.5799 136.968 15.9279C137.218 15.2759 137.342 14.5121 137.342 13.6364C137.342 12.7607 137.221 12 136.978 11.3544C136.735 10.7088 136.383 10.2102 135.923 9.85866C135.463 9.5071 134.904 9.33132 134.245 9.33132C133.574 9.33132 133.008 9.51349 132.548 9.87784C132.088 10.2422 131.74 10.7472 131.503 11.3928C131.267 12.0384 131.148 12.7862 131.148 13.6364C131.148 14.4929 131.267 15.2504 131.503 15.9087C131.746 16.5607 132.094 17.0721 132.548 17.4428C133.008 17.8072 133.574 17.9893 134.245 17.9893ZM151.015 21V1.36364H158.877C160.322 1.36364 161.527 1.57777 162.492 2.00604C163.457 2.4343 164.182 3.02876 164.668 3.78942C165.154 4.54368 165.397 5.413 165.397 6.39737C165.397 7.16442 165.243 7.83878 164.937 8.42045C164.63 8.99574 164.208 9.46875 163.671 9.83949C163.14 10.2038 162.533 10.4627 161.849 10.6161V10.8079C162.597 10.8398 163.297 11.0508 163.949 11.4407C164.607 11.8306 165.141 12.3771 165.55 13.0803C165.959 13.777 166.164 14.608 166.164 15.5732C166.164 16.6151 165.905 17.5451 165.387 18.3633C164.876 19.1751 164.118 19.8175 163.115 20.2905C162.111 20.7635 160.875 21 159.404 21H151.015ZM155.166 17.6058H158.551C159.708 17.6058 160.552 17.3853 161.082 16.9442C161.613 16.4968 161.878 15.9023 161.878 15.1609C161.878 14.6175 161.747 14.1381 161.485 13.7227C161.223 13.3072 160.849 12.9812 160.363 12.7447C159.884 12.5082 159.312 12.3899 158.647 12.3899H155.166V17.6058ZM155.166 9.58061H158.244C158.813 9.58061 159.318 9.48153 159.759 9.28338C160.207 9.07884 160.558 8.79119 160.814 8.42045C161.076 8.04972 161.207 7.60547 161.207 7.08771C161.207 6.3782 160.954 5.80611 160.449 5.37145C159.951 4.93679 159.241 4.71946 158.321 4.71946H155.166V9.58061ZM172.988 21.2781C172.049 21.2781 171.211 21.1151 170.476 20.7891C169.741 20.4567 169.159 19.9677 168.731 19.3221C168.309 18.6701 168.098 17.8583 168.098 16.8867C168.098 16.0685 168.249 15.3814 168.549 14.8253C168.849 14.2692 169.258 13.8217 169.776 13.483C170.294 13.1442 170.882 12.8885 171.54 12.7159C172.205 12.5433 172.902 12.4219 173.631 12.3516C174.487 12.2621 175.178 12.179 175.702 12.1023C176.226 12.0192 176.606 11.8977 176.843 11.7379C177.079 11.5781 177.197 11.3416 177.197 11.0284V10.9709C177.197 10.3636 177.006 9.89382 176.622 9.56143C176.245 9.22905 175.708 9.06285 175.011 9.06285C174.276 9.06285 173.691 9.22585 173.257 9.55185C172.822 9.87145 172.534 10.2741 172.394 10.7599L168.616 10.4531C168.808 9.55824 169.185 8.7848 169.747 8.13281C170.31 7.47443 171.035 6.96946 171.924 6.6179C172.819 6.25994 173.854 6.08097 175.03 6.08097C175.849 6.08097 176.632 6.17685 177.38 6.36861C178.134 6.56037 178.802 6.8576 179.383 7.2603C179.972 7.663 180.435 8.18075 180.774 8.81357C181.113 9.43999 181.282 10.1911 181.282 11.0668V21H177.408V18.9577H177.293C177.057 19.418 176.74 19.8239 176.344 20.1754C175.948 20.5206 175.472 20.7923 174.915 20.9904C174.359 21.1822 173.717 21.2781 172.988 21.2781ZM174.158 18.4592C174.759 18.4592 175.289 18.3409 175.75 18.1044C176.21 17.8615 176.571 17.5355 176.833 17.1264C177.095 16.7173 177.226 16.2539 177.226 15.7362V14.1733C177.098 14.2564 176.923 14.3331 176.699 14.4034C176.481 14.4673 176.235 14.5281 175.961 14.5856C175.686 14.6367 175.411 14.6847 175.136 14.7294C174.861 14.7678 174.612 14.8029 174.388 14.8349C173.909 14.9052 173.49 15.017 173.132 15.1705C172.774 15.3239 172.496 15.5316 172.298 15.7937C172.1 16.0494 172.001 16.369 172.001 16.7525C172.001 17.3086 172.202 17.7337 172.605 18.0277C173.014 18.3153 173.532 18.4592 174.158 18.4592ZM188.535 12.4858V21H184.451V6.27273H188.344V8.87109H188.516C188.842 8.01456 189.389 7.337 190.156 6.83842C190.923 6.33345 191.853 6.08097 192.946 6.08097C193.969 6.08097 194.86 6.30469 195.621 6.75213C196.382 7.19957 196.973 7.83878 197.395 8.66974C197.817 9.49432 198.027 10.4787 198.027 11.6229V21H193.943V12.3516C193.949 11.4503 193.719 10.7472 193.253 10.2422C192.786 9.73082 192.144 9.47514 191.325 9.47514C190.776 9.47514 190.29 9.59339 189.868 9.8299C189.453 10.0664 189.127 10.4116 188.89 10.8654C188.66 11.3129 188.542 11.853 188.535 12.4858ZM204.948 16.7621L204.957 11.8626H205.552L210.269 6.27273H214.958L208.62 13.6747H207.652L204.948 16.7621ZM201.247 21V1.36364H205.331V21H201.247ZM210.451 21L206.117 14.5856L208.84 11.6996L215.236 21H210.451ZM216.962 21V6.27273H221.046V21H216.962ZM219.013 4.37429C218.406 4.37429 217.885 4.17294 217.451 3.77024C217.022 3.36115 216.808 2.87216 216.808 2.30327C216.808 1.74077 217.022 1.25817 217.451 0.855469C217.885 0.446377 218.406 0.241831 219.013 0.241831C219.621 0.241831 220.138 0.446377 220.567 0.855469C221.001 1.25817 221.219 1.74077 221.219 2.30327C221.219 2.87216 221.001 3.36115 220.567 3.77024C220.138 4.17294 219.621 4.37429 219.013 4.37429ZM228.402 12.4858V21H224.318V6.27273H228.211V8.87109H228.383C228.709 8.01456 229.256 7.337 230.023 6.83842C230.79 6.33345 231.72 6.08097 232.813 6.08097C233.836 6.08097 234.727 6.30469 235.488 6.75213C236.249 7.19957 236.84 7.83878 237.262 8.66974C237.684 9.49432 237.895 10.4787 237.895 11.6229V21H233.81V12.3516C233.817 11.4503 233.586 10.7472 233.12 10.2422C232.653 9.73082 232.011 9.47514 231.193 9.47514C230.643 9.47514 230.157 9.59339 229.735 9.8299C229.32 10.0664 228.994 10.4116 228.757 10.8654C228.527 11.3129 228.409 11.853 228.402 12.4858ZM247.749 26.8295C246.426 26.8295 245.291 26.6474 244.345 26.283C243.405 25.9251 242.658 25.4361 242.101 24.8161C241.545 24.196 241.184 23.4993 241.018 22.7259L244.796 22.2177C244.911 22.5117 245.093 22.7866 245.342 23.0423C245.591 23.2979 245.921 23.5025 246.33 23.6559C246.745 23.8157 247.25 23.8956 247.845 23.8956C248.733 23.8956 249.465 23.6783 250.04 23.2436C250.622 22.8153 250.913 22.0962 250.913 21.0863V18.392H250.74C250.561 18.8011 250.293 19.1879 249.935 19.5522C249.577 19.9165 249.117 20.2138 248.554 20.4439C247.992 20.674 247.321 20.7891 246.541 20.7891C245.435 20.7891 244.428 20.5334 243.52 20.022C242.619 19.5043 241.9 18.7148 241.363 17.6538C240.833 16.5863 240.567 15.2376 240.567 13.6076C240.567 11.9393 240.839 10.5458 241.382 9.4272C241.926 8.30859 242.648 7.47124 243.549 6.91513C244.457 6.35902 245.451 6.08097 246.531 6.08097C247.356 6.08097 248.046 6.22159 248.602 6.50284C249.158 6.7777 249.606 7.12287 249.944 7.53835C250.29 7.94744 250.555 8.35014 250.74 8.74645H250.894V6.27273H254.949V21.1438C254.949 22.3967 254.643 23.445 254.029 24.2887C253.415 25.1325 252.565 25.7653 251.479 26.1871C250.398 26.6154 249.155 26.8295 247.749 26.8295ZM247.835 17.7209C248.493 17.7209 249.05 17.5579 249.503 17.2319C249.964 16.8995 250.315 16.4265 250.558 15.8129C250.807 15.1928 250.932 14.4513 250.932 13.5884C250.932 12.7255 250.811 11.9776 250.568 11.3448C250.325 10.7056 249.973 10.2102 249.513 9.85866C249.053 9.5071 248.493 9.33132 247.835 9.33132C247.164 9.33132 246.598 9.51349 246.138 9.87784C245.678 10.2358 245.329 10.7344 245.093 11.3736C244.856 12.0128 244.738 12.7511 244.738 13.5884C244.738 14.4386 244.856 15.1737 245.093 15.7937C245.336 16.4073 245.684 16.8835 246.138 17.2223C246.598 17.5547 247.164 17.7209 247.835 17.7209ZM270.47 21.2876C269.115 21.2876 267.945 21.0447 266.961 20.5589C265.977 20.0732 265.219 19.4148 264.689 18.5838C264.164 17.7464 263.902 16.8132 263.902 15.7841C263.902 15.017 264.056 14.3363 264.363 13.7418C264.669 13.1474 265.098 12.6009 265.647 12.1023C266.197 11.5973 266.836 11.0955 267.565 10.5969L271.371 8.09446C271.864 7.78125 272.225 7.45206 272.455 7.10689C272.685 6.75533 272.8 6.375 272.8 5.96591C272.8 5.57599 272.643 5.21484 272.33 4.88246C272.017 4.55007 271.573 4.38707 270.997 4.39347C270.614 4.39347 270.282 4.47976 270 4.65234C269.719 4.81854 269.499 5.03906 269.339 5.31392C269.185 5.58239 269.109 5.88281 269.109 6.2152C269.109 6.62429 269.224 7.03977 269.454 7.46165C269.684 7.88352 269.991 8.33097 270.374 8.80398C270.758 9.2706 271.176 9.77557 271.63 10.3189L280.94 21H276.683L268.917 12.3516C268.405 11.7699 267.894 11.1626 267.383 10.5298C266.878 9.89062 266.456 9.21307 266.117 8.49716C265.778 7.77486 265.609 6.99183 265.609 6.14808C265.609 5.19567 265.83 4.33913 266.271 3.57848C266.718 2.81783 267.344 2.21697 268.15 1.77592C268.955 1.32848 269.895 1.10476 270.969 1.10476C272.017 1.10476 272.921 1.31889 273.682 1.74716C274.449 2.16903 275.037 2.73153 275.446 3.43466C275.862 4.13139 276.07 4.89844 276.07 5.73579C276.07 6.66264 275.839 7.5032 275.379 8.25746C274.925 9.00533 274.286 9.67649 273.462 10.271L269.454 13.157C268.91 13.5533 268.508 13.9592 268.246 14.3746C267.99 14.7837 267.862 15.1768 267.862 15.554C267.862 16.0206 267.977 16.4393 268.207 16.81C268.437 17.1808 268.763 17.4748 269.185 17.6921C269.607 17.9031 270.103 18.0085 270.671 18.0085C271.362 18.0085 272.043 17.8519 272.714 17.5387C273.391 17.2191 274.005 16.7685 274.555 16.1868C275.111 15.5987 275.555 14.902 275.887 14.0966C276.22 13.2912 276.386 12.3995 276.386 11.4215H279.771C279.771 12.6232 279.64 13.7067 279.377 14.6719C279.115 15.6307 278.751 16.468 278.284 17.1839C277.818 17.8935 277.284 18.4751 276.683 18.929C276.491 19.0504 276.306 19.1655 276.127 19.2741C275.948 19.3828 275.763 19.4979 275.571 19.6193C274.842 20.2074 274.027 20.6325 273.126 20.8945C272.231 21.1566 271.346 21.2876 270.47 21.2876ZM288.968 21V1.36364H296.715C298.204 1.36364 299.473 1.64808 300.522 2.21697C301.57 2.77947 302.369 3.5625 302.919 4.56605C303.475 5.56321 303.753 6.71378 303.753 8.01776C303.753 9.32173 303.471 10.4723 302.909 11.4695C302.346 12.4666 301.531 13.2433 300.464 13.7994C299.403 14.3555 298.118 14.6335 296.61 14.6335H291.672V11.3065H295.938C296.737 11.3065 297.396 11.169 297.914 10.8942C298.438 10.6129 298.828 10.2262 299.083 9.73402C299.345 9.23544 299.476 8.66335 299.476 8.01776C299.476 7.36577 299.345 6.79687 299.083 6.31108C298.828 5.81889 298.438 5.43856 297.914 5.1701C297.389 4.89524 296.725 4.75781 295.919 4.75781H293.12V21H288.968ZM310.177 21.2781C309.237 21.2781 308.4 21.1151 307.665 20.7891C306.93 20.4567 306.348 19.9677 305.92 19.3221C305.498 18.6701 305.287 17.8583 305.287 16.8867C305.287 16.0685 305.437 15.3814 305.737 14.8253C306.038 14.2692 306.447 13.8217 306.965 13.483C307.482 13.1442 308.071 12.8885 308.729 12.7159C309.394 12.5433 310.09 12.4219 310.819 12.3516C311.676 12.2621 312.366 12.179 312.89 12.1023C313.414 12.0192 313.795 11.8977 314.031 11.7379C314.268 11.5781 314.386 11.3416 314.386 11.0284V10.9709C314.386 10.3636 314.194 9.89382 313.811 9.56143C313.433 9.22905 312.897 9.06285 312.2 9.06285C311.465 9.06285 310.88 9.22585 310.445 9.55185C310.011 9.87145 309.723 10.2741 309.582 10.7599L305.805 10.4531C305.996 9.55824 306.373 8.7848 306.936 8.13281C307.498 7.47443 308.224 6.96946 309.112 6.6179C310.007 6.25994 311.043 6.08097 312.219 6.08097C313.037 6.08097 313.82 6.17685 314.568 6.36861C315.322 6.56037 315.99 6.8576 316.572 7.2603C317.16 7.663 317.623 8.18075 317.962 8.81357C318.301 9.43999 318.47 10.1911 318.47 11.0668V21H314.597V18.9577H314.482C314.245 19.418 313.929 19.8239 313.533 20.1754C313.136 20.5206 312.66 20.7923 312.104 20.9904C311.548 21.1822 310.905 21.2781 310.177 21.2781ZM311.346 18.4592C311.947 18.4592 312.478 18.3409 312.938 18.1044C313.398 17.8615 313.759 17.5355 314.022 17.1264C314.284 16.7173 314.415 16.2539 314.415 15.7362V14.1733C314.287 14.2564 314.111 14.3331 313.887 14.4034C313.67 14.4673 313.424 14.5281 313.149 14.5856C312.874 14.6367 312.599 14.6847 312.324 14.7294C312.05 14.7678 311.8 14.8029 311.577 14.8349C311.097 14.9052 310.678 15.017 310.321 15.1705C309.963 15.3239 309.685 15.5316 309.486 15.7937C309.288 16.0494 309.189 16.369 309.189 16.7525C309.189 17.3086 309.39 17.7337 309.793 18.0277C310.202 18.3153 310.72 18.4592 311.346 18.4592ZM323.634 26.5227C323.116 26.5227 322.63 26.4812 322.176 26.3981C321.729 26.3214 321.358 26.2223 321.064 26.1009L321.984 23.0518C322.464 23.1989 322.895 23.2788 323.279 23.2915C323.669 23.3043 324.004 23.2148 324.286 23.0231C324.573 22.8313 324.807 22.5053 324.985 22.0451L325.225 21.4219L319.942 6.27273H324.238L327.287 17.0881H327.44L330.518 6.27273H334.842L329.118 22.5916C328.843 23.3842 328.469 24.0746 327.996 24.6626C327.53 25.2571 326.938 25.7141 326.222 26.0337C325.506 26.3597 324.644 26.5227 323.634 26.5227ZM336.932 21V6.27273H340.825V8.87109H340.998C341.304 8.00817 341.816 7.32741 342.532 6.82883C343.248 6.33026 344.104 6.08097 345.101 6.08097C346.111 6.08097 346.971 6.33345 347.68 6.83842C348.39 7.337 348.863 8.01456 349.099 8.87109H349.253C349.553 8.02734 350.097 7.35298 350.883 6.84801C351.675 6.33665 352.612 6.08097 353.692 6.08097C355.066 6.08097 356.182 6.51882 357.038 7.39453C357.901 8.26385 358.333 9.49751 358.333 11.0955V21H354.258V11.9009C354.258 11.0827 354.041 10.4691 353.606 10.06C353.171 9.65092 352.628 9.44638 351.976 9.44638C351.234 9.44638 350.656 9.68288 350.24 10.1559C349.825 10.6225 349.617 11.2393 349.617 12.0064V21H345.657V11.8146C345.657 11.0923 345.45 10.517 345.034 10.0888C344.625 9.66051 344.085 9.44638 343.414 9.44638C342.96 9.44638 342.551 9.56143 342.186 9.79155C341.829 10.0153 341.544 10.3317 341.333 10.7408C341.122 11.1435 341.017 11.6165 341.017 12.1598V21H336.932ZM368.271 21.2876C366.756 21.2876 365.452 20.9808 364.359 20.3672C363.272 19.7472 362.435 18.8714 361.847 17.7401C361.259 16.6023 360.965 15.2567 360.965 13.7035C360.965 12.1886 361.259 10.859 361.847 9.71484C362.435 8.57067 363.263 7.67898 364.33 7.03977C365.404 6.40057 366.663 6.08097 368.108 6.08097C369.079 6.08097 369.984 6.23757 370.821 6.55078C371.665 6.8576 372.4 7.32102 373.027 7.94105C373.659 8.56108 374.152 9.34091 374.503 10.2805C374.855 11.2138 375.03 12.3068 375.03 13.5597V14.6815H362.595V12.1502H371.186C371.186 11.5621 371.058 11.0412 370.802 10.5874C370.546 10.1335 370.192 9.77876 369.738 9.52308C369.29 9.26101 368.769 9.12997 368.175 9.12997C367.555 9.12997 367.005 9.27379 366.526 9.56143C366.053 9.84268 365.682 10.223 365.414 10.7024C365.145 11.1754 365.008 11.7028 365.001 12.2844V14.6911C365.001 15.4197 365.136 16.0494 365.404 16.5799C365.679 17.1104 366.066 17.5195 366.564 17.8072C367.063 18.0948 367.654 18.2386 368.338 18.2386C368.792 18.2386 369.207 18.1747 369.584 18.0469C369.962 17.919 370.284 17.7273 370.553 17.4716C370.821 17.2159 371.026 16.9027 371.166 16.532L374.944 16.7812C374.752 17.6889 374.359 18.4815 373.765 19.1591C373.177 19.8303 372.416 20.3544 371.483 20.7315C370.556 21.1023 369.485 21.2876 368.271 21.2876ZM381.78 12.4858V21H377.696V6.27273H381.589V8.87109H381.761C382.087 8.01456 382.634 7.337 383.401 6.83842C384.168 6.33345 385.098 6.08097 386.191 6.08097C387.214 6.08097 388.105 6.30469 388.866 6.75213C389.627 7.19957 390.218 7.83878 390.64 8.66974C391.062 9.49432 391.273 10.4787 391.273 11.6229V21H387.188V12.3516C387.194 11.4503 386.964 10.7472 386.498 10.2422C386.031 9.73082 385.389 9.47514 384.571 9.47514C384.021 9.47514 383.535 9.59339 383.113 9.8299C382.698 10.0664 382.372 10.4116 382.135 10.8654C381.905 11.3129 381.787 11.853 381.78 12.4858ZM402.325 6.27273V9.34091H393.456V6.27273H402.325ZM395.47 2.74432H399.554V16.4744C399.554 16.8516 399.612 17.1456 399.727 17.3565C399.842 17.5611 400.002 17.7049 400.206 17.788C400.417 17.8711 400.66 17.9126 400.935 17.9126C401.127 17.9126 401.318 17.8967 401.51 17.8647C401.702 17.8263 401.849 17.7976 401.951 17.7784L402.594 20.8178C402.389 20.8817 402.102 20.9553 401.731 21.0384C401.36 21.1278 400.909 21.1822 400.379 21.2013C399.394 21.2397 398.532 21.1087 397.79 20.8082C397.055 20.5078 396.483 20.0412 396.074 19.4084C395.665 18.7756 395.463 17.9766 395.47 17.0114V2.74432ZM409.068 1.36364V3.43466C409.068 4.02273 408.953 4.62358 408.723 5.23722C408.499 5.84446 408.199 6.41974 407.822 6.96307C407.444 7.5 407.032 7.95703 406.585 8.33416L404.782 7.26989C405.102 6.76491 405.383 6.20561 405.626 5.59197C405.875 4.97834 406 4.26562 406 3.45383V1.36364H409.068ZM413.891 1.36364V3.43466C413.891 4.02273 413.776 4.62358 413.546 5.23722C413.322 5.84446 413.022 6.41974 412.644 6.96307C412.267 7.5 411.852 7.95703 411.398 8.33416L409.595 7.26989C409.921 6.76491 410.206 6.20561 410.449 5.59197C410.698 4.97834 410.823 4.26562 410.823 3.45383V1.36364H413.891Z" fill="url(#paint0_linear_70_5453)"/>
<defs>
<linearGradient id="paint0_linear_70_5453" x1="207.25" y1="-7" x2="207.25" y2="30" gradientUnits="userSpaceOnUse">
<stop/>
<stop offset="1" stop-color="#76BBB1"/>
</linearGradient>
</defs>
</svg>
