<svg width="18" height="19" viewBox="0 0 18 19" fill="none" xmlns="http://www.w3.org/2000/svg">
<path fill-rule="evenodd" clip-rule="evenodd" d="M16.5 17.1C16.5 17.4496 16.164 17.7333 15.75 17.7333H2.25C1.836 17.7333 1.5 17.4496 1.5 17.1V4.43334C1.5 4.08374 1.836 3.80001 2.25 3.80001H4.50075V4.43334C4.50075 5.13254 5.172 5.70001 6.00075 5.70001H12.0007C12.8287 5.70001 13.5008 5.13254 13.5008 4.43334V3.80001H15.75C16.164 3.80001 16.5 4.08374 16.5 4.43334V17.1ZM6.75088 2.53333H11.2509V1.26666H6.75088V2.53333ZM15.75 2.53333H13.5008H12.7507V1.26667C12.7507 0.567467 12.0787 0 11.2507 0H6.75075C5.922 0 5.25075 0.567467 5.25075 1.26667V2.53333H4.50075H2.25C1.00725 2.53333 0 3.3839 0 4.43333V17.1C0 18.1494 1.00725 19 2.25 19H15.75C16.9928 19 18 18.1494 18 17.1V4.43333C18 3.3839 16.9928 2.53333 15.75 2.53333Z" fill="#00313D"/>
<path fill-rule="evenodd" clip-rule="evenodd" d="M13.5007 7.6001H4.50075C4.086 7.6001 3.75 7.88383 3.75 8.23343C3.75 8.58366 4.08525 8.86676 4.49925 8.86676H13.5007C13.9147 8.86676 14.25 8.58366 14.25 8.23343C14.25 7.8832 13.9147 7.6001 13.5007 7.6001" fill="#00313D"/>
<path fill-rule="evenodd" clip-rule="evenodd" d="M13.5007 10.1333H4.49925C4.08525 10.1333 3.75 10.4164 3.75 10.7666C3.75 11.1169 4.08525 11.4 4.49925 11.4H13.5007C13.9148 11.4 14.25 11.1169 14.25 10.7666C14.25 10.4164 13.9148 10.1333 13.5007 10.1333Z" fill="#00313D"/>
<path fill-rule="evenodd" clip-rule="evenodd" d="M13.5007 12.6667H4.49925C4.08525 12.6667 3.75 12.9498 3.75 13.3001C3.75 13.6503 4.08525 13.9334 4.49925 13.9334H13.5007C13.9147 13.9334 14.25 13.6503 14.25 13.3001C14.25 12.9498 13.9147 12.6667 13.5007 12.6667" fill="#00313D"/>
</svg>
