<svg width="63" height="68" viewBox="0 0 63 68" fill="none" xmlns="http://www.w3.org/2000/svg">
<path fill-rule="evenodd" clip-rule="evenodd" d="M28.9512 14.9075C29.0927 14.9013 29.235 14.8982 29.3781 14.8982C29.5211 14.8982 29.6634 14.9013 29.8049 14.9075L29.779 15.5194C29.6461 15.5136 29.5124 15.5107 29.3781 15.5107C29.2437 15.5107 29.11 15.5136 28.9771 15.5194L28.9512 14.9075ZM30.6552 14.9819C30.9393 15.0194 31.2197 15.0693 31.4957 15.131L31.3658 15.7292C31.1069 15.6713 30.8439 15.6245 30.5772 15.5893L30.6552 14.9819ZM27.2604 15.131C27.5364 15.0693 27.8168 15.0194 28.1009 14.9819L28.1789 15.5893C27.9122 15.6245 27.6492 15.6713 27.3903 15.7292L27.2604 15.131ZM25.6336 15.6503C25.8955 15.5402 26.1631 15.4414 26.4359 15.3543L26.6171 15.9386C26.3613 16.0202 26.1103 16.1129 25.8647 16.2161L25.6336 15.6503ZM32.3202 15.3543C32.593 15.4414 32.8606 15.5402 33.1225 15.6503L32.8914 16.2161C32.6458 16.1129 32.3948 16.0202 32.139 15.9386L32.3202 15.3543ZM33.896 16.0165C34.149 16.1503 34.3955 16.2949 34.6348 16.4498L34.3101 16.9662C34.0855 16.8208 33.8543 16.6851 33.6169 16.5596L33.896 16.0165ZM24.1213 16.4498C24.3606 16.2949 24.6071 16.1503 24.8601 16.0165L25.1392 16.5596C24.9018 16.6851 24.6706 16.8208 24.446 16.9662L24.1213 16.4498ZM35.3335 16.9468C35.5593 17.1228 35.7774 17.3086 35.9869 17.5035L35.579 17.955C35.3822 17.772 35.1776 17.5977 34.9657 17.4325L35.3335 16.9468ZM22.7691 17.5035C22.9787 17.3086 23.1968 17.1228 23.4226 16.9468L23.7904 17.4325C23.5785 17.5977 23.3739 17.772 23.1771 17.955L22.7691 17.5035ZM36.5903 18.1156C36.7825 18.3282 36.9656 18.5494 37.1391 18.7785L36.6603 19.1516C36.4975 18.9366 36.3256 18.7291 36.1453 18.5295L36.5903 18.1156ZM21.617 18.7785C21.7905 18.5494 21.9736 18.3282 22.1658 18.1156L22.6108 18.5295C22.4305 18.7291 22.2586 18.9366 22.0958 19.1516L21.617 18.7785ZM37.6289 19.4873C37.7817 19.7301 37.9243 19.9802 38.0561 20.2368L37.5207 20.5199C37.397 20.2792 37.2632 20.0446 37.12 19.8168L37.6289 19.4873ZM20.7 20.2368C20.8318 19.9802 20.9744 19.7301 21.1272 19.4873L21.6361 19.8168C21.4929 20.0446 21.3591 20.2792 21.2354 20.5199L20.7 20.2368ZM38.4171 21.0216C38.5256 21.2872 38.623 21.5587 38.7088 21.8355L38.1329 22.0193C38.0524 21.7597 37.961 21.5051 37.8593 21.256L38.4171 21.0216ZM20.0473 21.8355C20.1331 21.5587 20.2305 21.2872 20.339 21.0216L20.8968 21.256C20.7951 21.5051 20.7037 21.7597 20.6232 22.0193L20.0473 21.8355ZM19.6802 23.5246C19.7172 23.2363 19.7664 22.9519 19.8272 22.6719L20.4168 22.8037C20.3597 23.0663 20.3136 23.3332 20.2789 23.6037L19.6802 23.5246ZM38.9289 22.6719C38.9897 22.9519 39.0389 23.2363 39.0759 23.5246L38.4772 23.6037C38.4425 23.3332 38.3964 23.0663 38.3393 22.8037L38.9289 22.6719ZM19.5977 24.8202C19.5977 24.6751 19.6007 24.5308 19.6068 24.3872L20.21 24.4134C20.2043 24.5483 20.2014 24.6839 20.2014 24.8202C20.2014 24.9625 20.2046 25.1041 20.2108 25.2449L19.6076 25.2723C19.601 25.1224 19.5977 24.9717 19.5977 24.8202ZM39.1493 24.3872C39.1554 24.5308 39.1584 24.6751 39.1584 24.8202C39.1584 24.9647 39.1554 25.1085 39.1494 25.2515L38.5462 25.2255C38.5518 25.0912 38.5547 24.9561 38.5547 24.8202C38.5547 24.6839 38.5518 24.5483 38.5461 24.4134L39.1493 24.3872ZM39.0767 26.1113C39.0399 26.399 38.991 26.6826 38.9305 26.9618L38.3409 26.8302C38.3976 26.5685 38.4435 26.3024 38.4779 26.0326L39.0767 26.1113ZM19.848 27.0631C19.7817 26.7711 19.7281 26.4743 19.6877 26.1732L20.2859 26.0906C20.3238 26.3732 20.3742 26.6517 20.4363 26.9257L19.848 27.0631ZM38.7113 27.7961C38.6258 28.072 38.5288 28.3427 38.4206 28.6076L37.8628 28.3733C37.9642 28.1249 38.0552 27.8711 38.1354 27.6124L38.7113 27.7961ZM20.4046 28.7802C20.2869 28.5046 20.181 28.2225 20.0876 27.9346L20.6612 27.7432C20.7487 28.0133 20.8481 28.278 20.9586 28.5366L20.4046 28.7802ZM38.0608 29.39C37.9295 29.6457 37.7874 29.895 37.6352 30.1373L37.126 29.8082C37.2689 29.5807 37.4022 29.3468 37.5254 29.1069L38.0608 29.39ZM21.2589 30.3662C21.0936 30.1164 20.9392 29.8584 20.7962 29.593L21.326 29.2992C21.4602 29.5483 21.6051 29.7904 21.7602 30.0249L21.2589 30.3662ZM37.1476 30.8443C37.0614 30.9585 36.9728 31.0708 36.8819 31.1812L36.6503 30.9848L36.882 31.181C36.882 31.181 36.8819 31.1811 36.8819 31.1812M22.0775 31.4384C21.9788 31.3258 21.8825 31.2109 21.7887 31.0937L22.2576 30.7078C22.3454 30.8176 22.4356 30.9253 22.5281 31.0308C22.614 31.1277 22.7017 31.2228 22.7914 31.316L22.3593 31.7438C22.2636 31.6444 22.17 31.5429 22.0785 31.4395L22.0775 31.4384ZM35.9965 32.1246C35.7865 32.3208 35.5681 32.5077 35.3417 32.6848L34.9731 32.1997C35.1854 32.0336 35.3904 31.8582 35.5874 31.6741L35.9965 32.1246ZM23.5998 32.8353C23.3783 32.6711 23.1639 32.4977 22.9571 32.3157L23.3527 31.853C23.5469 32.0239 23.7482 32.1867 23.9561 32.3408L23.5998 32.8353ZM34.6411 33.1847C34.401 33.3405 34.1537 33.486 33.8998 33.6204L33.6205 33.0775C33.8586 32.9513 34.0905 32.8149 34.3157 32.6688L34.6411 33.1847ZM25.0023 33.7025C24.7564 33.5779 24.5165 33.4431 24.283 33.2987L24.5973 32.7757C24.8164 32.9112 25.0415 33.0377 25.2721 33.1545L25.0023 33.7025ZM33.1236 33.9883C32.8608 34.0988 32.5922 34.198 32.3184 34.2853L32.1373 33.701C32.3941 33.6191 32.646 33.5261 32.8924 33.4225L33.1236 33.9883ZM26.5289 34.3186C26.2652 34.2376 26.0063 34.1457 25.7527 34.0433L25.9759 33.4742C26.2137 33.5702 26.4565 33.6564 26.7037 33.7323L26.5289 34.3186ZM31.4907 34.5092C31.2137 34.571 30.9323 34.621 30.6469 34.6585L30.5692 34.0511C30.837 34.0159 31.1011 33.969 31.3609 33.911L31.4907 34.5092ZM28.1358 34.6646C27.8619 34.6297 27.5915 34.5834 27.3252 34.5261L27.4505 33.9269C27.7003 33.9807 27.9539 34.0241 28.2109 34.0568L28.1358 34.6646ZM29.7939 34.7329C29.6519 34.7391 29.5092 34.7422 29.3657 34.7422C29.228 34.7422 29.091 34.7393 28.9548 34.7336L28.9797 34.1216C29.1076 34.127 29.2364 34.1297 29.3657 34.1297C29.5006 34.1297 29.6348 34.1268 29.7681 34.121L29.7939 34.7329Z" fill="#4F576B"/>
<path d="M32.868 25.4508C32.7965 25.7593 32.6892 26.0859 32.5639 26.3581C32.2241 27.0295 31.6875 27.5558 31.0257 27.9005C30.346 28.2453 29.541 28.3905 28.7361 28.209C26.8401 27.8098 25.6238 25.9226 26.0173 23.9992C26.4108 22.0757 28.2532 20.8236 30.1492 21.241C30.8289 21.3861 31.4192 21.7309 31.92 22.2027C32.7607 23.0556 33.1184 24.2895 32.868 25.4508Z" fill="url(#paint0_linear_447_20856)"/>
<path d="M30.5606 24.4166H29.7557V23.6C29.7557 23.4367 29.6305 23.2915 29.4516 23.2915C29.2907 23.2915 29.1476 23.4185 29.1476 23.6V24.4166H28.3427C28.1817 24.4166 28.0386 24.5436 28.0386 24.725C28.0386 24.9065 28.1638 25.0335 28.3427 25.0335H29.1476V25.8501C29.1476 26.0134 29.2728 26.1586 29.4516 26.1586C29.6126 26.1586 29.7557 26.0315 29.7557 25.8501V25.0335H30.5606C30.7216 25.0335 30.8647 24.9065 30.8647 24.725C30.8647 24.5436 30.7216 24.4166 30.5606 24.4166Z" fill="#474E61"/>
<path d="M33.5674 15.2086C33.5674 16.3426 33.1206 17.3507 32.4257 18.1067C32.376 18.1823 32.3016 18.2327 32.2271 18.2831C31.4826 18.9888 30.4898 19.4172 29.3977 19.4172C28.5291 19.4172 27.71 19.14 27.0399 18.6611C26.8414 18.5351 26.6676 18.3587 26.4939 18.2075C25.7245 17.4515 25.2529 16.393 25.2529 15.2086C25.2529 12.8901 27.1144 11 29.3977 11C31.7059 11 33.5674 12.8901 33.5674 15.2086Z" fill="#E9F0F8"/>
<g filter="url(#filter0_d_447_20856)">
<path d="M33.5674 15.2083C33.5674 16.4431 33.0462 17.5268 32.2271 18.308C31.4826 19.0137 30.4898 19.4421 29.3977 19.4421C28.5291 19.4421 27.71 19.1649 27.0399 18.686C25.9479 17.93 25.2529 16.67 25.2529 15.2335C25.2529 12.915 27.1144 11.0249 29.3977 11.0249C31.6811 11.0249 33.5674 12.8898 33.5674 15.2083Z" fill="url(#paint1_linear_447_20856)"/>
</g>
<path d="M32.4259 18.1068C32.3763 18.1824 32.3018 18.2328 32.2274 18.2832C31.4828 18.9888 30.49 19.4173 29.398 19.4173C28.5293 19.4173 27.7103 19.14 27.0402 18.6612C26.8416 18.5352 26.6679 18.3588 26.4941 18.2076C26.5934 18.0816 26.7423 18.006 27.065 17.88L27.1891 17.8296C27.4373 17.7288 27.7847 17.6028 28.2315 17.4012C28.3059 17.376 28.3556 17.3256 28.4052 17.2752C28.43 17.25 28.4549 17.2248 28.4549 17.1744C28.4797 17.124 28.5045 17.0484 28.5045 16.998V16.1411C28.4797 16.1159 28.4797 16.1159 28.4549 16.0907C28.3804 15.9899 28.3308 15.8639 28.3308 15.7127L28.2811 15.6875C28.0578 15.7379 28.0826 15.5111 28.0329 15.0575C28.0081 14.8811 28.0329 14.8307 28.1322 14.8055L28.2067 14.7046C28.0578 14.3518 27.9833 14.0242 27.9833 13.7722C27.9833 13.3438 28.157 13.0666 28.4052 12.9406C28.2563 12.6382 28.2563 12.5374 28.2563 12.5374C28.2563 12.5374 29.125 12.6886 29.4228 12.6382C29.7951 12.5626 30.3908 12.6634 30.6141 13.1674C30.9864 13.3186 31.1105 13.5454 31.1602 13.7974C31.2098 14.2006 30.9864 14.629 30.9368 14.8055V14.8307C30.9864 14.8559 31.0112 14.9063 30.9864 15.0827C30.9368 15.5111 30.9368 15.7631 30.7382 15.7127L30.5397 16.0655C30.5397 16.1159 30.5397 16.1159 30.5149 16.1411C30.5149 16.2167 30.5149 16.3427 30.5149 17.0232C30.5149 17.0988 30.5397 17.1996 30.5893 17.25C30.6141 17.2752 30.6141 17.3004 30.639 17.3004C30.6886 17.3508 30.7382 17.4012 30.7879 17.4012C31.2843 17.6028 31.6317 17.754 31.9047 17.8548C32.1529 17.9556 32.3267 18.0312 32.4259 18.1068Z" fill="#8E94A7"/>
<path d="M32.4259 18.1068C32.3763 18.1824 32.3018 18.2328 32.2274 18.2832C31.4828 18.9888 30.49 19.4172 29.398 19.4172C28.5293 19.4172 27.7103 19.14 27.0402 18.6612C26.8416 18.5352 26.6679 18.3588 26.4941 18.2076C26.5934 18.0816 26.7423 18.006 27.065 17.88L27.1891 17.8296C27.4373 17.7288 27.7847 17.6028 28.2315 17.4012C28.3059 17.376 28.3556 17.3255 28.4052 17.2751C28.6534 17.628 29.0505 17.8548 29.5221 17.8548C29.9688 17.8548 30.3659 17.628 30.6141 17.3003C30.6638 17.3507 30.7134 17.4012 30.763 17.4012C31.2594 17.6028 31.6069 17.754 31.8799 17.8548C32.1529 17.9556 32.3267 18.0312 32.4259 18.1068Z" fill="#00313D"/>
<path d="M30.912 14.7803C30.9368 14.6794 30.8871 14.5282 30.8375 14.4526C30.8375 14.4274 30.8127 14.4274 30.8127 14.4022C30.6389 14.0494 30.2667 13.9234 29.9192 13.8982C29.0009 13.8478 28.9264 14.0242 28.6534 13.7722C28.7527 13.8982 28.7527 14.125 28.6038 14.377C28.5045 14.5534 28.3308 14.6542 28.157 14.7046C27.7351 13.747 27.9585 13.1422 28.3556 12.9406C28.2067 12.6382 28.2067 12.5374 28.2067 12.5374C28.2067 12.5374 29.0753 12.6886 29.3732 12.6382C29.7454 12.5626 30.3411 12.6634 30.5645 13.1674C30.9368 13.3186 31.0609 13.5454 31.1105 13.7974C31.185 14.1754 30.9616 14.6038 30.912 14.7803Z" fill="#00313D"/>
<path d="M28.5296 16.9979V16.1411C28.5048 16.1159 28.5048 16.1159 28.48 16.0907V16.0403C28.5296 16.1159 28.5793 16.1915 28.6537 16.2419L29.3238 16.7207C29.4728 16.8467 29.6961 16.8467 29.845 16.7207L30.4655 16.1663C30.4903 16.1411 30.5152 16.1411 30.54 16.1159C30.54 16.1915 30.54 16.3175 30.54 16.9979C30.54 17.0483 30.54 17.0735 30.5648 17.1239H28.5296C28.5048 17.0735 28.5296 17.0483 28.5296 16.9979Z" fill="url(#paint2_linear_447_20856)"/>
<path d="M41 30.7664C41 31.9005 40.5532 32.9085 39.8583 33.6646C39.8087 33.7402 39.7342 33.7906 39.6598 33.841C38.9152 34.5466 37.9224 34.975 36.8304 34.975C35.9617 34.975 35.1427 34.6978 34.4725 34.219C34.274 34.093 34.1002 33.9166 33.9265 33.7654C33.1571 33.0093 32.6855 31.9509 32.6855 30.7664C32.6855 28.4479 34.547 26.5579 36.8304 26.5579C39.1385 26.5579 41 28.4479 41 30.7664Z" fill="#E9F0F8"/>
<g filter="url(#filter1_d_447_20856)">
<path d="M41 30.7661C41 32.001 40.4788 33.0847 39.6598 33.8659C38.9152 34.5715 37.9224 34.9999 36.8304 34.9999C35.9617 34.9999 35.1427 34.7227 34.4725 34.2439C33.3805 33.4879 32.6855 32.2278 32.6855 30.7913C32.6855 28.4728 34.547 26.5828 36.8304 26.5828C39.1137 26.5828 41 28.4476 41 30.7661Z" fill="url(#paint3_linear_447_20856)"/>
</g>
<path d="M39.8581 33.6647C39.8084 33.7403 39.734 33.7907 39.6595 33.8411C38.9149 34.5467 37.9222 34.9751 36.8301 34.9751C35.9614 34.9751 35.1424 34.6979 34.4723 34.2191C34.2737 34.0931 34.1 33.9167 33.9263 33.7655C34.0255 33.6395 34.1745 33.5639 34.4971 33.4379L34.6212 33.3874C34.8694 33.2866 35.2169 33.1606 35.6636 32.959C35.7381 32.9338 35.7877 32.8834 35.8374 32.833C35.8622 32.8078 35.887 32.7826 35.887 32.7322C35.9118 32.6818 35.9366 32.6062 35.9366 32.5558V31.699C35.9118 31.6738 35.9118 31.6738 35.887 31.6486C35.8125 31.5478 35.7629 31.4218 35.7629 31.2706L35.7133 31.2454C35.4899 31.2958 35.5147 31.0689 35.4651 30.6153C35.4402 30.4389 35.4651 30.3885 35.5643 30.3633L35.6388 30.2625C35.4899 29.9097 35.4154 29.5821 35.4154 29.3301C35.4154 28.9017 35.5892 28.6244 35.8374 28.4984C35.6884 28.196 35.6884 28.0952 35.6884 28.0952C35.6884 28.0952 36.5571 28.2464 36.8549 28.196C37.2272 28.1204 37.8229 28.2212 38.0463 28.7252C38.4185 28.8764 38.5426 29.1033 38.5923 29.3553C38.6419 29.7585 38.4186 30.1869 38.3689 30.3633V30.3885C38.4186 30.4137 38.4434 30.4641 38.4185 30.6405C38.3689 31.0689 38.3689 31.321 38.1704 31.2706L37.9718 31.6234C37.9718 31.6738 37.9718 31.6738 37.947 31.699C37.947 31.7746 37.947 31.9006 37.947 32.581C37.947 32.6566 37.9718 32.7574 38.0214 32.8078C38.0463 32.833 38.0463 32.8582 38.0711 32.8582C38.1207 32.9086 38.1704 32.959 38.22 32.959C38.7164 33.1606 39.0639 33.3118 39.3369 33.4126C39.5851 33.5135 39.7588 33.5891 39.8581 33.6647Z" fill="#8E94A7"/>
<path d="M39.8581 33.6646C39.8084 33.7402 39.734 33.7907 39.6595 33.8411C38.9149 34.5467 37.9222 34.9751 36.8301 34.9751C35.9614 34.9751 35.1424 34.6979 34.4723 34.2191C34.2737 34.0931 34.1 33.9167 33.9263 33.7654C34.0255 33.6394 34.1745 33.5638 34.4971 33.4378L34.6212 33.3874C34.8694 33.2866 35.2169 33.1606 35.6636 32.959C35.7381 32.9338 35.7877 32.8834 35.8374 32.833C36.0855 33.1858 36.4827 33.4126 36.9542 33.4126C37.401 33.4126 37.7981 33.1858 38.0463 32.8582C38.0959 32.9086 38.1455 32.959 38.1952 32.959C38.6916 33.1606 39.039 33.3118 39.312 33.4126C39.5851 33.5134 39.7588 33.589 39.8581 33.6646Z" fill="#00313D"/>
<path d="M38.3441 30.3381C38.3689 30.2373 38.3193 30.0861 38.2696 30.0105C38.2696 29.9853 38.2448 29.9853 38.2448 29.9601C38.0711 29.6073 37.6988 29.4813 37.3513 29.4561C36.433 29.4057 36.3585 29.5821 36.0855 29.3301C36.1848 29.4561 36.1848 29.6829 36.0359 29.9349C35.9366 30.1113 35.7629 30.2121 35.5891 30.2625C35.1672 29.3049 35.3906 28.7 35.7877 28.4984C35.6388 28.196 35.6388 28.0952 35.6388 28.0952C35.6388 28.0952 36.5075 28.2464 36.8053 28.196C37.1776 28.1204 37.7732 28.2212 37.9966 28.7252C38.3689 28.8764 38.493 29.1033 38.5426 29.3553C38.6171 29.7333 38.3937 30.1617 38.3441 30.3381Z" fill="#00313D"/>
<path d="M35.9613 32.5558V31.6989C35.9364 31.6737 35.9364 31.6737 35.9116 31.6485V31.5981C35.9613 31.6737 36.0109 31.7494 36.0854 31.7998L36.7555 32.2786C36.9044 32.4046 37.1278 32.4046 37.2767 32.2786L37.8972 31.7242C37.922 31.6989 37.9468 31.6989 37.9716 31.6737C37.9716 31.7494 37.9716 31.8754 37.9716 32.5558C37.9716 32.6062 37.9716 32.6314 37.9964 32.6818H35.9613C35.9364 32.6314 35.9613 32.6062 35.9613 32.5558Z" fill="url(#paint4_linear_447_20856)"/>
<g filter="url(#filter2_d_447_20856)">
<path d="M26.0911 30.8297C26.0911 32.0141 25.5947 33.0726 24.8005 33.8286C24.5771 34.0302 24.3537 34.2066 24.0807 34.3578C23.4851 34.7106 22.7901 34.9122 22.0455 34.9122C21.301 34.9122 20.606 34.7106 20.0104 34.3578C19.9111 34.3074 19.8366 34.257 19.7373 34.1814C18.6949 33.4506 18 32.2157 18 30.8297C18 28.5616 19.8118 26.7471 22.0207 26.7471C24.2793 26.7219 26.0911 28.5616 26.0911 30.8297Z" fill="url(#paint5_linear_447_20856)"/>
</g>
<path d="M21.2264 31.7367C21.276 31.7871 21.3257 31.8627 21.4001 31.9131C21.4498 31.9635 21.4994 31.9887 21.549 32.0391C21.5739 32.0643 21.6235 32.0895 21.6483 32.1147C21.6483 32.1147 21.6731 32.1147 21.6731 32.1399L21.698 32.1651V32.5179C21.698 32.5179 21.698 32.5179 21.6731 32.4927C21.6483 32.4675 21.5987 32.4423 21.5739 32.4171C21.5242 32.3919 21.4746 32.3415 21.4249 32.3163C21.4001 32.3163 21.4001 32.2911 21.3753 32.2911C21.2016 32.1903 21.0527 32.0895 21.0527 31.9635C21.0775 31.9131 21.1271 31.8375 21.2264 31.7367ZM24.679 33.6859C24.53 33.3583 24.3288 33.0471 23.9813 32.8707C23.8076 32.7951 23.609 32.7195 23.4105 32.7195C23.3608 32.7195 23.2864 32.7195 23.2367 32.7195C23.2119 32.7195 23.1871 32.7195 23.1623 32.7195C22.8893 32.6943 22.8645 32.6439 22.8645 32.6439V32.0643C23.0382 31.9131 23.2119 31.7367 23.3608 31.5603C23.4849 31.3839 23.5842 31.1823 23.6339 30.9302C23.8572 30.8798 24.0061 30.6782 23.9813 30.4262C23.9813 30.3254 23.9069 30.2246 23.9069 30.1238C23.9069 30.0734 23.9069 30.023 23.9069 29.9726C23.9069 29.9474 23.9069 29.897 23.9069 29.8718C23.9069 29.8466 23.9069 29.7962 23.9069 29.771C23.882 29.5946 23.8324 29.4182 23.7331 29.2166C23.4353 28.6621 22.8893 28.3093 22.244 28.3093C22.1199 28.3093 21.9958 28.3345 21.8717 28.3597C21.6483 28.4101 21.4249 28.5109 21.2512 28.6621C21.2264 28.6873 21.1767 28.7125 21.1519 28.7629L21.1271 28.7881C20.9286 28.9898 20.7548 29.2166 20.6804 29.4938C20.5811 29.771 20.5811 30.0482 20.6059 30.3254C20.6059 30.3254 20.6059 30.3254 20.6059 30.3506V30.3758C20.6059 30.4262 20.6307 30.4262 20.6059 30.4514C20.6059 30.4766 20.5811 30.4766 20.5811 30.5018C20.5314 30.5774 20.5066 30.6782 20.5563 30.8294C20.6555 31.0814 20.8045 31.0562 20.9782 31.1823C20.9782 31.1823 20.9534 31.1823 20.9534 31.2075L20.7796 31.2579C19.9854 31.5099 19.7124 32.1903 20.0599 32.6187C20.184 32.7699 20.3825 32.8959 20.6804 32.9715C20.6059 32.9715 20.5314 33.0219 20.4818 33.0723C20.1343 33.3495 19.911 33.778 19.8613 34.1812C19.8613 34.2064 19.8613 34.2316 19.8613 34.2568C19.9606 34.3072 20.0351 34.3828 20.1343 34.4332L24.0208 34.341C24.269 34.1898 24.3788 34.0731 24.6022 33.8715C24.5774 33.7455 24.7038 33.7111 24.679 33.6859Z" fill="#8E94A7"/>
<path d="M24.8004 33.8285C24.5771 34.0301 24.3537 34.2065 24.0807 34.3577C23.485 34.7105 22.7901 34.9121 22.0455 34.9121C21.3009 34.9121 20.606 34.7105 20.0103 34.3577C19.911 34.3073 19.8366 34.2569 19.7373 34.1813C19.7373 34.1561 19.7373 34.1309 19.7373 34.1057C19.7869 33.7025 20.0103 33.274 20.3578 32.9968C20.4074 32.9464 20.4819 32.9212 20.5563 32.896C20.2585 32.8456 20.06 32.7196 19.9359 32.5432H20.879C21.152 32.9212 21.5739 33.148 22.0703 33.148C22.4922 33.148 22.8645 32.9716 23.1375 32.6944C23.1624 32.6944 23.1872 32.6944 23.212 32.6944C23.2616 32.6944 23.3113 32.6944 23.3857 32.6944C23.5843 32.6944 23.7828 32.7448 23.9566 32.8456C24.304 33.022 24.5522 33.3244 24.726 33.6773C24.7756 33.7277 24.7756 33.7781 24.8004 33.8285Z" fill="#00313D"/>
<path d="M22.8893 32.0645V32.5937L21.3257 32.6441L21.4001 32.2913C21.425 32.2913 21.425 32.3165 21.4498 32.3165C21.4994 32.3417 21.5491 32.3921 21.5987 32.4173C21.6235 32.4425 21.6483 32.4677 21.698 32.4929C21.698 32.4929 21.7228 32.4929 21.7228 32.5181V32.1653L21.698 32.1401C21.971 32.2913 22.3433 32.3921 22.8893 32.0645Z" fill="url(#paint6_linear_447_20856)"/>
<path d="M23.9069 29.872C23.609 29.9728 23.2616 30.0232 22.9389 29.998C22.4177 29.9476 21.9213 29.746 21.5242 29.3931C21.4001 29.7712 21.0775 30.0484 20.7052 30.2248C20.6555 30.25 20.6059 30.2752 20.5563 30.2752C20.5563 30.2752 20.5563 30.2752 20.5563 30.25C20.5314 29.9728 20.5314 29.6956 20.6307 29.4183C20.7052 29.1411 20.8789 28.9143 21.0775 28.7127L21.1023 28.6875C21.1271 28.6623 21.1768 28.6371 21.2016 28.5867C21.3753 28.4355 21.5987 28.3347 21.8221 28.2843C21.9461 28.2591 22.0702 28.2339 22.1943 28.2339C22.8396 28.2339 23.4105 28.5867 23.6835 29.1411C23.7828 29.3427 23.8324 29.5443 23.8572 29.6956C23.9069 29.7964 23.9069 29.8468 23.9069 29.872Z" fill="#00313D"/>
<path d="M21.921 33.6018C21.7721 33.7782 21.5239 33.7782 21.3005 33.7782C21.5239 33.5514 21.3998 32.8206 20.6056 32.8962C19.5135 32.6945 19.6128 31.5353 20.7048 31.1825L20.8786 31.1321L20.9034 31.1573C20.9778 31.3841 21.1019 31.5857 21.226 31.7369C20.7793 32.1149 21.3998 32.2157 21.6976 32.5181C21.9458 32.6693 22.1692 33.2994 21.921 33.6018Z" fill="#00313D"/>
<defs>
<filter id="filter0_d_447_20856" x="3.25293" y="0.0249023" width="52.3145" height="52.4172" filterUnits="userSpaceOnUse" color-interpolation-filters="sRGB">
<feFlood flood-opacity="0" result="BackgroundImageFix"/>
<feColorMatrix in="SourceAlpha" type="matrix" values="0 0 0 0 0 0 0 0 0 0 0 0 0 0 0 0 0 0 127 0" result="hardAlpha"/>
<feOffset dy="11"/>
<feGaussianBlur stdDeviation="11"/>
<feColorMatrix type="matrix" values="0 0 0 0 0 0 0 0 0 0 0 0 0 0 0 0 0 0 0.27 0"/>
<feBlend mode="normal" in2="BackgroundImageFix" result="effect1_dropShadow_447_20856"/>
<feBlend mode="normal" in="SourceGraphic" in2="effect1_dropShadow_447_20856" result="shape"/>
</filter>
<filter id="filter1_d_447_20856" x="10.6855" y="15.5828" width="52.3145" height="52.4172" filterUnits="userSpaceOnUse" color-interpolation-filters="sRGB">
<feFlood flood-opacity="0" result="BackgroundImageFix"/>
<feColorMatrix in="SourceAlpha" type="matrix" values="0 0 0 0 0 0 0 0 0 0 0 0 0 0 0 0 0 0 127 0" result="hardAlpha"/>
<feOffset dy="11"/>
<feGaussianBlur stdDeviation="11"/>
<feColorMatrix type="matrix" values="0 0 0 0 0 0 0 0 0 0 0 0 0 0 0 0 0 0 0.27 0"/>
<feBlend mode="normal" in2="BackgroundImageFix" result="effect1_dropShadow_447_20856"/>
<feBlend mode="normal" in="SourceGraphic" in2="effect1_dropShadow_447_20856" result="shape"/>
</filter>
<filter id="filter2_d_447_20856" x="-4" y="15.7468" width="52.0913" height="52.1655" filterUnits="userSpaceOnUse" color-interpolation-filters="sRGB">
<feFlood flood-opacity="0" result="BackgroundImageFix"/>
<feColorMatrix in="SourceAlpha" type="matrix" values="0 0 0 0 0 0 0 0 0 0 0 0 0 0 0 0 0 0 127 0" result="hardAlpha"/>
<feOffset dy="11"/>
<feGaussianBlur stdDeviation="11"/>
<feColorMatrix type="matrix" values="0 0 0 0 0 0 0 0 0 0 0 0 0 0 0 0 0 0 0.27 0"/>
<feBlend mode="normal" in2="BackgroundImageFix" result="effect1_dropShadow_447_20856"/>
<feBlend mode="normal" in="SourceGraphic" in2="effect1_dropShadow_447_20856" result="shape"/>
</filter>
<linearGradient id="paint0_linear_447_20856" x1="27.5498" y1="23.0315" x2="30.6414" y2="28.1746" gradientUnits="userSpaceOnUse">
<stop stop-color="#E3EAF7"/>
<stop offset="1" stop-color="#ADB6C8"/>
</linearGradient>
<linearGradient id="paint1_linear_447_20856" x1="29.4074" y1="10.8302" x2="29.4074" y2="19.5328" gradientUnits="userSpaceOnUse">
<stop stop-color="#5C6479"/>
<stop offset="0.9964" stop-color="#5C6479"/>
</linearGradient>
<linearGradient id="paint2_linear_447_20856" x1="29.5184" y1="17.0902" x2="29.5184" y2="16.5226" gradientUnits="userSpaceOnUse">
<stop stop-color="#8E94A7"/>
<stop offset="0.9913" stop-color="#6C707C"/>
</linearGradient>
<linearGradient id="paint3_linear_447_20856" x1="36.8401" y1="26.3881" x2="36.8401" y2="35.0907" gradientUnits="userSpaceOnUse">
<stop stop-color="#5C6479"/>
<stop offset="0.9964" stop-color="#5C6479"/>
</linearGradient>
<linearGradient id="paint4_linear_447_20856" x1="36.95" y1="32.648" x2="36.95" y2="32.0804" gradientUnits="userSpaceOnUse">
<stop stop-color="#8E94A7"/>
<stop offset="0.9913" stop-color="#6C707C"/>
</linearGradient>
<linearGradient id="paint5_linear_447_20856" x1="22.0429" y1="26.558" x2="22.0429" y2="35.0003" gradientUnits="userSpaceOnUse">
<stop stop-color="#5C6479"/>
<stop offset="0.9964" stop-color="#5C6479"/>
</linearGradient>
<linearGradient id="paint6_linear_447_20856" x1="22.1045" y1="32.626" x2="22.1045" y2="32.3224" gradientUnits="userSpaceOnUse">
<stop stop-color="#8E94A7"/>
<stop offset="0.9913" stop-color="#6C707C"/>
</linearGradient>
</defs>
</svg>
